<?xml version="1.0" encoding="UTF-8"?>
<svg xmlns="http://www.w3.org/2000/svg" viewBox="0 0 900 535" width="900" height="535" font-family="system-ui, -apple-system, &#x27;Segoe UI&#x27;, Roboto, &#x27;Helvetica Neue&#x27;, Arial, sans-serif" text-rendering="geometricPrecision" shape-rendering="geometricPrecision">
<title>store() under contention, relative to the baseline</title>
<rect width="100%" height="100%" fill="#ffffff"/>
<text x="20.0" y="30.0" font-size="18" text-anchor="start" font-weight="600" fill="#1a202c">store() under contention, relative to the baseline</text>
<text x="20.0" y="52.0" font-size="12" text-anchor="start" font-weight="normal" fill="#4a5568">Intel64 Family 6 Model 154 Stepping 3, GenuineIntel, 20 logical CPUs, governor unknown; MSVC 1951, MSVC STL; median of 100 runs</text>
<text x="20.0" y="69.0" font-size="12" text-anchor="start" font-weight="normal" fill="#4a5568">Each point: time per operation / uint64 CAS time of the same block; whiskers: 25th-75th percentile</text>
<line x1="20.0" y1="91.0" x2="44.0" y2="91.0" stroke="#0072B2" stroke-width="2.5"/>
<circle cx="32.0" cy="91.0" r="3.5" fill="#0072B2"/>
<text x="50.0" y="95.0" font-size="12" text-anchor="start" font-weight="normal" fill="#1a202c">LumexLib lock-based, C++11</text>
<line x1="243.6" y1="91.0" x2="267.6" y2="91.0" stroke="#56B4E9" stroke-width="2.5" stroke-dasharray="7 4"/>
<circle cx="255.6" cy="91.0" r="3.5" fill="#56B4E9"/>
<text x="273.6" y="95.0" font-size="12" text-anchor="start" font-weight="normal" fill="#1a202c">LumexLib lock-based, C++20</text>
<line x1="467.2" y1="91.0" x2="491.2" y2="91.0" stroke="#009E73" stroke-width="2.5" stroke-dasharray="2 4"/>
<circle cx="479.2" cy="91.0" r="3.5" fill="#009E73"/>
<text x="497.2" y="95.0" font-size="12" text-anchor="start" font-weight="normal" fill="#1a202c">LumexLib default, C++20 (wraps std)</text>
<line x1="20.0" y1="113.0" x2="44.0" y2="113.0" stroke="#E69F00" stroke-width="2.5"/>
<circle cx="32.0" cy="113.0" r="3.5" fill="#E69F00"/>
<text x="50.0" y="117.0" font-size="12" text-anchor="start" font-weight="normal" fill="#1a202c">std::atomic, MSVC STL (MSVC 1951)</text>
<line x1="80" y1="475.0" x2="870" y2="475.0" stroke="#e2e8f0" stroke-width="1"/>
<text x="72.0" y="479.0" font-size="11" text-anchor="end" font-weight="normal" fill="#4a5568">0</text>
<line x1="80" y1="420.0" x2="870" y2="420.0" stroke="#e2e8f0" stroke-width="1"/>
<text x="72.0" y="424.0" font-size="11" text-anchor="end" font-weight="normal" fill="#4a5568">2.5</text>
<line x1="80" y1="365.0" x2="870" y2="365.0" stroke="#e2e8f0" stroke-width="1"/>
<text x="72.0" y="369.0" font-size="11" text-anchor="end" font-weight="normal" fill="#4a5568">5</text>
<line x1="80" y1="310.0" x2="870" y2="310.0" stroke="#e2e8f0" stroke-width="1"/>
<text x="72.0" y="314.0" font-size="11" text-anchor="end" font-weight="normal" fill="#4a5568">7.5</text>
<line x1="80" y1="255.0" x2="870" y2="255.0" stroke="#e2e8f0" stroke-width="1"/>
<text x="72.0" y="259.0" font-size="11" text-anchor="end" font-weight="normal" fill="#4a5568">10</text>
<line x1="80" y1="200.0" x2="870" y2="200.0" stroke="#e2e8f0" stroke-width="1"/>
<text x="72.0" y="204.0" font-size="11" text-anchor="end" font-weight="normal" fill="#4a5568">12.5</text>
<line x1="80" y1="145.0" x2="870" y2="145.0" stroke="#e2e8f0" stroke-width="1"/>
<text x="72.0" y="149.0" font-size="11" text-anchor="end" font-weight="normal" fill="#4a5568">15</text>
<line x1="100.0" y1="145" x2="100.0" y2="475" stroke="#f0f3f7" stroke-width="1"/>
<text x="100.0" y="493.0" font-size="11" text-anchor="middle" font-weight="normal" fill="#4a5568">1</text>
<line x1="139.5" y1="145" x2="139.5" y2="475" stroke="#f0f3f7" stroke-width="1"/>
<text x="139.5" y="493.0" font-size="11" text-anchor="middle" font-weight="normal" fill="#4a5568">2</text>
<line x1="218.4" y1="145" x2="218.4" y2="475" stroke="#f0f3f7" stroke-width="1"/>
<text x="218.4" y="493.0" font-size="11" text-anchor="middle" font-weight="normal" fill="#4a5568">4</text>
<line x1="297.4" y1="145" x2="297.4" y2="475" stroke="#f0f3f7" stroke-width="1"/>
<text x="297.4" y="493.0" font-size="11" text-anchor="middle" font-weight="normal" fill="#4a5568">6</text>
<line x1="376.3" y1="145" x2="376.3" y2="475" stroke="#f0f3f7" stroke-width="1"/>
<text x="376.3" y="493.0" font-size="11" text-anchor="middle" font-weight="normal" fill="#4a5568">8</text>
<line x1="455.3" y1="145" x2="455.3" y2="475" stroke="#f0f3f7" stroke-width="1"/>
<text x="455.3" y="493.0" font-size="11" text-anchor="middle" font-weight="normal" fill="#4a5568">10</text>
<line x1="534.2" y1="145" x2="534.2" y2="475" stroke="#f0f3f7" stroke-width="1"/>
<text x="534.2" y="493.0" font-size="11" text-anchor="middle" font-weight="normal" fill="#4a5568">12</text>
<line x1="613.2" y1="145" x2="613.2" y2="475" stroke="#f0f3f7" stroke-width="1"/>
<text x="613.2" y="493.0" font-size="11" text-anchor="middle" font-weight="normal" fill="#4a5568">14</text>
<line x1="692.1" y1="145" x2="692.1" y2="475" stroke="#f0f3f7" stroke-width="1"/>
<text x="692.1" y="493.0" font-size="11" text-anchor="middle" font-weight="normal" fill="#4a5568">16</text>
<line x1="771.1" y1="145" x2="771.1" y2="475" stroke="#f0f3f7" stroke-width="1"/>
<text x="771.1" y="493.0" font-size="11" text-anchor="middle" font-weight="normal" fill="#4a5568">18</text>
<line x1="850.0" y1="145" x2="850.0" y2="475" stroke="#f0f3f7" stroke-width="1"/>
<text x="850.0" y="493.0" font-size="11" text-anchor="middle" font-weight="normal" fill="#4a5568">20</text>
<line x1="80" y1="475" x2="870" y2="475" stroke="#a0aec0" stroke-width="1"/>
<text x="475.0" y="515.0" font-size="12" text-anchor="middle" font-weight="normal" fill="#2d3748">threads</text>
<text x="24" y="310.0" font-size="12" text-anchor="middle" fill="#2d3748" transform="rotate(-90 24 310.0)">time / uint64 CAS time (lower is better)</text>
<line x1="80" y1="453.0" x2="870" y2="453.0" stroke="#C53030" stroke-width="1.2" stroke-dasharray="6 4"/>
<text x="866.0" y="447.0" font-size="11" text-anchor="end" font-weight="normal" fill="#C53030">uint64 CAS = 1</text>
<path d="M95.5 416.5 L135.0 399.6 L213.9 356.5 L292.9 330.0 L371.8 316.6 L450.8 312.8 L529.7 298.5 L608.7 294.8 L687.6 292.3 L766.6 294.0 L845.5 289.7" fill="none" stroke="#0072B2" stroke-width="2.2"/>
<path d="M95.5 418.9V403.0M92.5 418.9H98.5M92.5 403.0H98.5" stroke="#0072B2" stroke-width="1.1" fill="none"/>
<circle cx="95.5" cy="416.5" r="3.6" fill="#0072B2" stroke="#ffffff" stroke-width="1"><title>LumexLib lock-based, C++11, 1 threads: 2.66 (2.55..3.27)</title></circle>
<path d="M135.0 404.0V367.8M132.0 404.0H138.0M132.0 367.8H138.0" stroke="#0072B2" stroke-width="1.1" fill="none"/>
<circle cx="135.0" cy="399.6" r="3.6" fill="#0072B2" stroke="#ffffff" stroke-width="1"><title>LumexLib lock-based, C++11, 2 threads: 3.43 (3.23..4.87)</title></circle>
<path d="M213.9 368.9V347.2M210.9 368.9H216.9M210.9 347.2H216.9" stroke="#0072B2" stroke-width="1.1" fill="none"/>
<circle cx="213.9" cy="356.5" r="3.6" fill="#0072B2" stroke="#ffffff" stroke-width="1"><title>LumexLib lock-based, C++11, 4 threads: 5.39 (4.82..5.81)</title></circle>
<path d="M292.9 343.0V312.8M289.9 343.0H295.9M289.9 312.8H295.9" stroke="#0072B2" stroke-width="1.1" fill="none"/>
<circle cx="292.9" cy="330.0" r="3.6" fill="#0072B2" stroke="#ffffff" stroke-width="1"><title>LumexLib lock-based, C++11, 6 threads: 6.59 (6.00..7.37)</title></circle>
<path d="M371.8 331.1V299.3M368.8 331.1H374.8M368.8 299.3H374.8" stroke="#0072B2" stroke-width="1.1" fill="none"/>
<circle cx="371.8" cy="316.6" r="3.6" fill="#0072B2" stroke="#ffffff" stroke-width="1"><title>LumexLib lock-based, C++11, 8 threads: 7.20 (6.54..7.99)</title></circle>
<path d="M450.8 337.4V290.3M447.8 337.4H453.8M447.8 290.3H453.8" stroke="#0072B2" stroke-width="1.1" fill="none"/>
<circle cx="450.8" cy="312.8" r="3.6" fill="#0072B2" stroke="#ffffff" stroke-width="1"><title>LumexLib lock-based, C++11, 10 threads: 7.37 (6.26..8.39)</title></circle>
<path d="M529.7 344.5V282.1M526.7 344.5H532.7M526.7 282.1H532.7" stroke="#0072B2" stroke-width="1.1" fill="none"/>
<circle cx="529.7" cy="298.5" r="3.6" fill="#0072B2" stroke="#ffffff" stroke-width="1"><title>LumexLib lock-based, C++11, 12 threads: 8.02 (5.93..8.77)</title></circle>
<path d="M608.7 344.6V279.1M605.7 344.6H611.7M605.7 279.1H611.7" stroke="#0072B2" stroke-width="1.1" fill="none"/>
<circle cx="608.7" cy="294.8" r="3.6" fill="#0072B2" stroke="#ffffff" stroke-width="1"><title>LumexLib lock-based, C++11, 14 threads: 8.19 (5.93..8.90)</title></circle>
<path d="M687.6 344.9V277.9M684.6 344.9H690.6M684.6 277.9H690.6" stroke="#0072B2" stroke-width="1.1" fill="none"/>
<circle cx="687.6" cy="292.3" r="3.6" fill="#0072B2" stroke="#ffffff" stroke-width="1"><title>LumexLib lock-based, C++11, 16 threads: 8.30 (5.91..8.96)</title></circle>
<path d="M766.6 341.2V276.7M763.6 341.2H769.6M763.6 276.7H769.6" stroke="#0072B2" stroke-width="1.1" fill="none"/>
<circle cx="766.6" cy="294.0" r="3.6" fill="#0072B2" stroke="#ffffff" stroke-width="1"><title>LumexLib lock-based, C++11, 18 threads: 8.23 (6.08..9.01)</title></circle>
<path d="M845.5 336.4V277.9M842.5 336.4H848.5M842.5 277.9H848.5" stroke="#0072B2" stroke-width="1.1" fill="none"/>
<circle cx="845.5" cy="289.7" r="3.6" fill="#0072B2" stroke="#ffffff" stroke-width="1"><title>LumexLib lock-based, C++11, 20 threads: 8.42 (6.30..8.96)</title></circle>
<path d="M98.5 417.4 L138.0 399.6 L216.9 354.9 L295.9 324.5 L374.8 303.1 L453.8 281.6 L532.7 253.5 L611.7 237.8 L690.6 227.6 L769.6 220.5 L848.5 210.5" fill="none" stroke="#56B4E9" stroke-width="2.2" stroke-dasharray="7 4"/>
<path d="M98.5 419.4V400.3M95.5 419.4H101.5M95.5 400.3H101.5" stroke="#56B4E9" stroke-width="1.1" fill="none"/>
<circle cx="98.5" cy="417.4" r="3.6" fill="#56B4E9" stroke="#ffffff" stroke-width="1"><title>LumexLib lock-based, C++20, 1 threads: 2.62 (2.53..3.39)</title></circle>
<path d="M138.0 405.7V375.3M135.0 405.7H141.0M135.0 375.3H141.0" stroke="#56B4E9" stroke-width="1.1" fill="none"/>
<circle cx="138.0" cy="399.6" r="3.6" fill="#56B4E9" stroke="#ffffff" stroke-width="1"><title>LumexLib lock-based, C++20, 2 threads: 3.43 (3.15..4.53)</title></circle>
<path d="M216.9 369.6V339.0M213.9 369.6H219.9M213.9 339.0H219.9" stroke="#56B4E9" stroke-width="1.1" fill="none"/>
<circle cx="216.9" cy="354.9" r="3.6" fill="#56B4E9" stroke="#ffffff" stroke-width="1"><title>LumexLib lock-based, C++20, 4 threads: 5.46 (4.79..6.18)</title></circle>
<path d="M295.9 347.2V313.7M292.9 347.2H298.9M292.9 313.7H298.9" stroke="#56B4E9" stroke-width="1.1" fill="none"/>
<circle cx="295.9" cy="324.5" r="3.6" fill="#56B4E9" stroke="#ffffff" stroke-width="1"><title>LumexLib lock-based, C++20, 6 threads: 6.84 (5.81..7.33)</title></circle>
<path d="M374.8 317.8V281.0M371.8 317.8H377.8M371.8 281.0H377.8" stroke="#56B4E9" stroke-width="1.1" fill="none"/>
<circle cx="374.8" cy="303.1" r="3.6" fill="#56B4E9" stroke="#ffffff" stroke-width="1"><title>LumexLib lock-based, C++20, 8 threads: 7.82 (7.15..8.82)</title></circle>
<path d="M453.8 327.6V259.3M450.8 327.6H456.8M450.8 259.3H456.8" stroke="#56B4E9" stroke-width="1.1" fill="none"/>
<circle cx="453.8" cy="281.6" r="3.6" fill="#56B4E9" stroke="#ffffff" stroke-width="1"><title>LumexLib lock-based, C++20, 10 threads: 8.79 (6.70..9.80)</title></circle>
<path d="M532.7 345.7V235.4M529.7 345.7H535.7M529.7 235.4H535.7" stroke="#56B4E9" stroke-width="1.1" fill="none"/>
<circle cx="532.7" cy="253.5" r="3.6" fill="#56B4E9" stroke="#ffffff" stroke-width="1"><title>LumexLib lock-based, C++20, 12 threads: 10.07 (5.88..10.89)</title></circle>
<path d="M611.7 338.3V218.5M608.7 338.3H614.7M608.7 218.5H614.7" stroke="#56B4E9" stroke-width="1.1" fill="none"/>
<circle cx="611.7" cy="237.8" r="3.6" fill="#56B4E9" stroke="#ffffff" stroke-width="1"><title>LumexLib lock-based, C++20, 14 threads: 10.78 (6.22..11.66)</title></circle>
<path d="M690.6 338.7V200.4M687.6 338.7H693.6M687.6 200.4H693.6" stroke="#56B4E9" stroke-width="1.1" fill="none"/>
<circle cx="690.6" cy="227.6" r="3.6" fill="#56B4E9" stroke="#ffffff" stroke-width="1"><title>LumexLib lock-based, C++20, 16 threads: 11.24 (6.20..12.48)</title></circle>
<path d="M769.6 345.8V197.1M766.6 345.8H772.6M766.6 197.1H772.6" stroke="#56B4E9" stroke-width="1.1" fill="none"/>
<circle cx="769.6" cy="220.5" r="3.6" fill="#56B4E9" stroke="#ffffff" stroke-width="1"><title>LumexLib lock-based, C++20, 18 threads: 11.57 (5.87..12.63)</title></circle>
<path d="M848.5 344.3V192.5M845.5 344.3H851.5M845.5 192.5H851.5" stroke="#56B4E9" stroke-width="1.1" fill="none"/>
<circle cx="848.5" cy="210.5" r="3.6" fill="#56B4E9" stroke="#ffffff" stroke-width="1"><title>LumexLib lock-based, C++20, 20 threads: 12.02 (5.94..12.84)</title></circle>
<path d="M101.5 420.2 L141.0 373.3 L219.9 351.9 L298.9 322.8 L377.8 315.5 L456.8 319.7 L535.7 311.5 L614.7 307.7 L693.6 307.2 L772.6 306.1 L851.5 301.5" fill="none" stroke="#009E73" stroke-width="2.2" stroke-dasharray="2 4"/>
<path d="M101.5 422.0V399.9M98.5 422.0H104.5M98.5 399.9H104.5" stroke="#009E73" stroke-width="1.1" fill="none"/>
<circle cx="101.5" cy="420.2" r="3.6" fill="#009E73" stroke="#ffffff" stroke-width="1"><title>LumexLib default, C++20 (wraps std), 1 threads: 2.49 (2.41..3.41)</title></circle>
<path d="M141.0 383.4V363.3M138.0 383.4H144.0M138.0 363.3H144.0" stroke="#009E73" stroke-width="1.1" fill="none"/>
<circle cx="141.0" cy="373.3" r="3.6" fill="#009E73" stroke="#ffffff" stroke-width="1"><title>LumexLib default, C++20 (wraps std), 2 threads: 4.62 (4.16..5.08)</title></circle>
<path d="M219.9 362.5V337.0M216.9 362.5H222.9M216.9 337.0H222.9" stroke="#009E73" stroke-width="1.1" fill="none"/>
<circle cx="219.9" cy="351.9" r="3.6" fill="#009E73" stroke="#ffffff" stroke-width="1"><title>LumexLib default, C++20 (wraps std), 4 threads: 5.60 (5.12..6.27)</title></circle>
<path d="M298.9 336.6V307.6M295.9 336.6H301.9M295.9 307.6H301.9" stroke="#009E73" stroke-width="1.1" fill="none"/>
<circle cx="298.9" cy="322.8" r="3.6" fill="#009E73" stroke="#ffffff" stroke-width="1"><title>LumexLib default, C++20 (wraps std), 6 threads: 6.92 (6.29..7.61)</title></circle>
<path d="M377.8 325.0V298.9M374.8 325.0H380.8M374.8 298.9H380.8" stroke="#009E73" stroke-width="1.1" fill="none"/>
<circle cx="377.8" cy="315.5" r="3.6" fill="#009E73" stroke="#ffffff" stroke-width="1"><title>LumexLib default, C++20 (wraps std), 8 threads: 7.25 (6.82..8.01)</title></circle>
<path d="M456.8 329.1V304.1M453.8 329.1H459.8M453.8 304.1H459.8" stroke="#009E73" stroke-width="1.1" fill="none"/>
<circle cx="456.8" cy="319.7" r="3.6" fill="#009E73" stroke="#ffffff" stroke-width="1"><title>LumexLib default, C++20 (wraps std), 10 threads: 7.06 (6.63..7.77)</title></circle>
<path d="M535.7 321.9V298.4M532.7 321.9H538.7M532.7 298.4H538.7" stroke="#009E73" stroke-width="1.1" fill="none"/>
<circle cx="535.7" cy="311.5" r="3.6" fill="#009E73" stroke="#ffffff" stroke-width="1"><title>LumexLib default, C++20 (wraps std), 12 threads: 7.43 (6.96..8.03)</title></circle>
<path d="M614.7 316.1V297.7M611.7 316.1H617.7M611.7 297.7H617.7" stroke="#009E73" stroke-width="1.1" fill="none"/>
<circle cx="614.7" cy="307.7" r="3.6" fill="#009E73" stroke="#ffffff" stroke-width="1"><title>LumexLib default, C++20 (wraps std), 14 threads: 7.61 (7.22..8.06)</title></circle>
<path d="M693.6 318.7V295.1M690.6 318.7H696.6M690.6 295.1H696.6" stroke="#009E73" stroke-width="1.1" fill="none"/>
<circle cx="693.6" cy="307.2" r="3.6" fill="#009E73" stroke="#ffffff" stroke-width="1"><title>LumexLib default, C++20 (wraps std), 16 threads: 7.63 (7.10..8.18)</title></circle>
<path d="M772.6 315.5V295.6M769.6 315.5H775.6M769.6 295.6H775.6" stroke="#009E73" stroke-width="1.1" fill="none"/>
<circle cx="772.6" cy="306.1" r="3.6" fill="#009E73" stroke="#ffffff" stroke-width="1"><title>LumexLib default, C++20 (wraps std), 18 threads: 7.68 (7.25..8.15)</title></circle>
<path d="M851.5 314.4V291.4M848.5 314.4H854.5M848.5 291.4H854.5" stroke="#009E73" stroke-width="1.1" fill="none"/>
<circle cx="851.5" cy="301.5" r="3.6" fill="#009E73" stroke="#ffffff" stroke-width="1"><title>LumexLib default, C++20 (wraps std), 20 threads: 7.89 (7.30..8.35)</title></circle>
<path d="M104.5 419.5 L144.0 369.0 L222.9 347.7 L301.9 323.5 L380.8 312.0 L459.8 314.9 L538.7 311.0 L617.7 314.9 L696.6 307.0 L775.6 306.6 L854.5 305.1" fill="none" stroke="#E69F00" stroke-width="2.2"/>
<path d="M104.5 421.5V406.8M101.5 421.5H107.5M101.5 406.8H107.5" stroke="#E69F00" stroke-width="1.1" fill="none"/>
<circle cx="104.5" cy="419.5" r="3.6" fill="#E69F00" stroke="#ffffff" stroke-width="1"><title>std::atomic, MSVC STL (MSVC 1951), 1 threads: 2.52 (2.43..3.10)</title></circle>
<path d="M144.0 378.0V357.2M141.0 378.0H147.0M141.0 357.2H147.0" stroke="#E69F00" stroke-width="1.1" fill="none"/>
<circle cx="144.0" cy="369.0" r="3.6" fill="#E69F00" stroke="#ffffff" stroke-width="1"><title>std::atomic, MSVC STL (MSVC 1951), 2 threads: 4.82 (4.41..5.36)</title></circle>
<path d="M222.9 360.7V332.8M219.9 360.7H225.9M219.9 332.8H225.9" stroke="#E69F00" stroke-width="1.1" fill="none"/>
<circle cx="222.9" cy="347.7" r="3.6" fill="#E69F00" stroke="#ffffff" stroke-width="1"><title>std::atomic, MSVC STL (MSVC 1951), 4 threads: 5.78 (5.19..6.46)</title></circle>
<path d="M301.9 333.2V306.7M298.9 333.2H304.9M298.9 306.7H304.9" stroke="#E69F00" stroke-width="1.1" fill="none"/>
<circle cx="301.9" cy="323.5" r="3.6" fill="#E69F00" stroke="#ffffff" stroke-width="1"><title>std::atomic, MSVC STL (MSVC 1951), 6 threads: 6.89 (6.45..7.65)</title></circle>
<path d="M380.8 324.0V297.5M377.8 324.0H383.8M377.8 297.5H383.8" stroke="#E69F00" stroke-width="1.1" fill="none"/>
<circle cx="380.8" cy="312.0" r="3.6" fill="#E69F00" stroke="#ffffff" stroke-width="1"><title>std::atomic, MSVC STL (MSVC 1951), 8 threads: 7.41 (6.86..8.07)</title></circle>
<path d="M459.8 329.1V304.5M456.8 329.1H462.8M456.8 304.5H462.8" stroke="#E69F00" stroke-width="1.1" fill="none"/>
<circle cx="459.8" cy="314.9" r="3.6" fill="#E69F00" stroke="#ffffff" stroke-width="1"><title>std::atomic, MSVC STL (MSVC 1951), 10 threads: 7.28 (6.63..7.75)</title></circle>
<path d="M538.7 324.0V297.4M535.7 324.0H541.7M535.7 297.4H541.7" stroke="#E69F00" stroke-width="1.1" fill="none"/>
<circle cx="538.7" cy="311.0" r="3.6" fill="#E69F00" stroke="#ffffff" stroke-width="1"><title>std::atomic, MSVC STL (MSVC 1951), 12 threads: 7.46 (6.86..8.07)</title></circle>
<path d="M617.7 323.7V300.6M614.7 323.7H620.7M614.7 300.6H620.7" stroke="#E69F00" stroke-width="1.1" fill="none"/>
<circle cx="617.7" cy="314.9" r="3.6" fill="#E69F00" stroke="#ffffff" stroke-width="1"><title>std::atomic, MSVC STL (MSVC 1951), 14 threads: 7.28 (6.88..7.93)</title></circle>
<path d="M696.6 317.9V295.0M693.6 317.9H699.6M693.6 295.0H699.6" stroke="#E69F00" stroke-width="1.1" fill="none"/>
<circle cx="696.6" cy="307.0" r="3.6" fill="#E69F00" stroke="#ffffff" stroke-width="1"><title>std::atomic, MSVC STL (MSVC 1951), 16 threads: 7.64 (7.14..8.18)</title></circle>
<path d="M775.6 321.5V295.6M772.6 321.5H778.6M772.6 295.6H778.6" stroke="#E69F00" stroke-width="1.1" fill="none"/>
<circle cx="775.6" cy="306.6" r="3.6" fill="#E69F00" stroke="#ffffff" stroke-width="1"><title>std::atomic, MSVC STL (MSVC 1951), 18 threads: 7.66 (6.98..8.15)</title></circle>
<path d="M854.5 316.9V294.7M851.5 316.9H857.5M851.5 294.7H857.5" stroke="#E69F00" stroke-width="1.1" fill="none"/>
<circle cx="854.5" cy="305.1" r="3.6" fill="#E69F00" stroke="#ffffff" stroke-width="1"><title>std::atomic, MSVC STL (MSVC 1951), 20 threads: 7.72 (7.19..8.20)</title></circle>
</svg>
