<svg xmlns="http://www.w3.org/2000/svg" width="1000" height="940" viewBox="0 0 1000 940" font-family="Segoe UI, Arial, sans-serif" font-size="11">
<rect width="100%" height="100%" fill="#ffffff"/>
<text x="190" y="22" font-size="15" font-weight="bold">string_view, time relative to std::string_view C++17 (library shared)</text>
<text x="190" y="40" fill="#555">GCC 13.2.0; 12th Gen Intel(R) Core(TM) i7-12700K</text>
<circle cx="195" cy="55" r="4.5" fill="#d9822b"/>
<text x="204" y="59">std C++17</text>
<circle cx="274" cy="55" r="4.5" fill="#b0601a"/>
<text x="283" y="59">std C++20</text>
<circle cx="354" cy="55" r="4.5" fill="#1b6ca8"/>
<text x="363" y="59">lumex C++11</text>
<circle cx="446" cy="55" r="4.5" fill="#6fb1e0"/>
<text x="455" y="59">lumex C++17</text>
<circle cx="539" cy="55" r="4.5" fill="#7b4fb0"/>
<text x="548" y="59">lumex inlined C++17</text>
<circle cx="680" cy="55" r="4.5" fill="#3c9d4a"/>
<text x="689" y="59">boost C++11</text>
<circle cx="773" cy="55" r="4.5" fill="#8fd19a"/>
<text x="782" y="59">boost C++17</text>
<line x1="190.0" y1="64" x2="190.0" y2="862" stroke="#ddd"/>
<text x="190.0" y="876" text-anchor="middle" fill="#555">0.05x</text>
<line x1="268.3" y1="64" x2="268.3" y2="862" stroke="#ddd"/>
<text x="268.3" y="876" text-anchor="middle" fill="#555">0.1x</text>
<line x1="346.5" y1="64" x2="346.5" y2="862" stroke="#ddd"/>
<text x="346.5" y="876" text-anchor="middle" fill="#555">0.2x</text>
<line x1="450.0" y1="64" x2="450.0" y2="862" stroke="#ddd"/>
<text x="450.0" y="876" text-anchor="middle" fill="#555">0.5x</text>
<line x1="528.3" y1="64" x2="528.3" y2="862" stroke="#444"/>
<text x="528.3" y="876" text-anchor="middle" fill="#555">1x</text>
<line x1="606.5" y1="64" x2="606.5" y2="862" stroke="#ddd"/>
<text x="606.5" y="876" text-anchor="middle" fill="#555">2x</text>
<line x1="710.0" y1="64" x2="710.0" y2="862" stroke="#ddd"/>
<text x="710.0" y="876" text-anchor="middle" fill="#555">5x</text>
<line x1="788.3" y1="64" x2="788.3" y2="862" stroke="#ddd"/>
<text x="788.3" y="876" text-anchor="middle" fill="#555">10x</text>
<line x1="866.5" y1="64" x2="866.5" y2="862" stroke="#ddd"/>
<text x="866.5" y="876" text-anchor="middle" fill="#555">20x</text>
<line x1="970.0" y1="64" x2="970.0" y2="862" stroke="#ddd"/>
<text x="970.0" y="876" text-anchor="middle" fill="#555">50x</text>
<text x="580" y="896" text-anchor="middle" fill="#555">time relative to std::string_view C++17 (C++20 for starts_with and ends_with); log scale, clipped at 0.05x and 50x; left is faster</text>
<text x="580" y="912" text-anchor="middle" fill="#555">a hollow dot: the processes of that executable disagree by more than 25 % (code and stack placement), read it as noise</text>
<rect x="0" y="70.0" width="1000" height="18" fill="#f6f8fa"/>
<text x="182" y="83.0" text-anchor="end">ctor_literal</text>
<circle cx="528.3" cy="79.0" r="4" fill="#d9822b" fill-opacity="0.9"><title>std C++17: 0.62 ns, 1.00x</title></circle>
<circle cx="521.8" cy="79.0" r="4" fill="#b0601a" fill-opacity="0.9"><title>std C++20: 0.59 ns, 0.94x</title></circle>
<circle cx="669.3" cy="79.0" r="4" fill="#1b6ca8" fill-opacity="0.9"><title>lumex C++11: 2.16 ns, 3.49x</title></circle>
<circle cx="669.5" cy="79.0" r="4" fill="#6fb1e0" fill-opacity="0.9"><title>lumex C++17: 2.17 ns, 3.49x</title></circle>
<circle cx="522.5" cy="79.0" r="4" fill="#7b4fb0" fill-opacity="0.9"><title>lumex inlined C++17: 0.59 ns, 0.95x</title></circle>
<circle cx="520.0" cy="79.0" r="4" fill="#3c9d4a" fill-opacity="0.9"><title>boost C++11: 0.58 ns, 0.93x</title></circle>
<circle cx="522.2" cy="79.0" r="4" fill="#8fd19a" fill-opacity="0.9"><title>boost C++17: 0.59 ns, 0.95x</title></circle>
<text x="182" y="101.0" text-anchor="end">ctor_cstr</text>
<circle cx="528.3" cy="97.0" r="4" fill="#d9822b" fill-opacity="0.9"><title>std C++17: 2.84 ns, 1.00x</title></circle>
<circle cx="533.0" cy="97.0" r="4" fill="#b0601a" fill-opacity="0.9"><title>std C++20: 2.96 ns, 1.04x</title></circle>
<circle cx="560.7" cy="97.0" r="4" fill="#1b6ca8" fill-opacity="0.9"><title>lumex C++11: 3.78 ns, 1.33x</title></circle>
<circle cx="561.4" cy="97.0" r="4" fill="#6fb1e0" fill-opacity="0.9"><title>lumex C++17: 3.81 ns, 1.34x</title></circle>
<circle cx="527.9" cy="97.0" r="4" fill="#7b4fb0" fill-opacity="0.9"><title>lumex inlined C++17: 2.83 ns, 1.00x</title></circle>
<circle cx="528.4" cy="97.0" r="4" fill="#3c9d4a" fill-opacity="0.9"><title>boost C++11: 2.84 ns, 1.00x</title></circle>
<circle cx="531.4" cy="97.0" r="4" fill="#8fd19a" fill-opacity="0.9"><title>boost C++17: 2.92 ns, 1.03x</title></circle>
<rect x="0" y="106.0" width="1000" height="18" fill="#f6f8fa"/>
<text x="182" y="119.0" text-anchor="end">ctor_string</text>
<circle cx="528.3" cy="115.0" r="4" fill="#d9822b" fill-opacity="0.9"><title>std C++17: 0.85 ns, 1.00x</title></circle>
<circle cx="529.4" cy="115.0" r="4" fill="#b0601a" fill-opacity="0.9"><title>std C++20: 0.86 ns, 1.01x</title></circle>
<circle cx="559.4" cy="115.0" r="4" fill="#1b6ca8" fill-opacity="0.9"><title>lumex C++11: 1.12 ns, 1.32x</title></circle>
<circle cx="559.4" cy="115.0" r="4" fill="#6fb1e0" fill-opacity="0.9"><title>lumex C++17: 1.12 ns, 1.32x</title></circle>
<circle cx="528.0" cy="115.0" r="4" fill="#7b4fb0" fill-opacity="0.9"><title>lumex inlined C++17: 0.85 ns, 1.00x</title></circle>
<circle cx="526.8" cy="115.0" r="4" fill="#3c9d4a" fill-opacity="0.9"><title>boost C++11: 0.84 ns, 0.99x</title></circle>
<circle cx="530.0" cy="115.0" r="4" fill="#8fd19a" fill-opacity="0.9"><title>boost C++17: 0.87 ns, 1.02x</title></circle>
<text x="182" y="137.0" text-anchor="end">ctor_ptr_size</text>
<circle cx="528.3" cy="133.0" r="4" fill="#d9822b" fill-opacity="0.9"><title>std C++17: 0.76 ns, 1.00x</title></circle>
<circle cx="528.3" cy="133.0" r="4" fill="#b0601a" fill-opacity="0.9"><title>std C++20: 0.76 ns, 1.00x</title></circle>
<circle cx="523.7" cy="133.0" r="4" fill="#1b6ca8" fill-opacity="0.9"><title>lumex C++11: 0.73 ns, 0.96x</title></circle>
<circle cx="522.8" cy="133.0" r="4" fill="#6fb1e0" fill-opacity="0.9"><title>lumex C++17: 0.73 ns, 0.95x</title></circle>
<circle cx="528.0" cy="133.0" r="4" fill="#7b4fb0" fill-opacity="0.9"><title>lumex inlined C++17: 0.76 ns, 1.00x</title></circle>
<circle cx="528.2" cy="133.0" r="4" fill="#3c9d4a" fill-opacity="0.9"><title>boost C++11: 0.76 ns, 1.00x</title></circle>
<circle cx="529.6" cy="133.0" r="4" fill="#8fd19a" fill-opacity="0.9"><title>boost C++17: 0.77 ns, 1.01x</title></circle>
<rect x="0" y="142.0" width="1000" height="18" fill="#f6f8fa"/>
<text x="182" y="155.0" text-anchor="end">copy</text>
<circle cx="528.3" cy="151.0" r="4" fill="#d9822b" fill-opacity="0.9"><title>std C++17: 0.63 ns, 1.00x</title></circle>
<circle cx="527.9" cy="151.0" r="4" fill="#b0601a" fill-opacity="0.9"><title>std C++20: 0.63 ns, 1.00x</title></circle>
<circle cx="525.5" cy="151.0" r="4" fill="#1b6ca8" fill-opacity="0.9"><title>lumex C++11: 0.61 ns, 0.98x</title></circle>
<circle cx="522.4" cy="151.0" r="4" fill="#6fb1e0" fill-opacity="0.9"><title>lumex C++17: 0.60 ns, 0.95x</title></circle>
<circle cx="530.6" cy="151.0" r="4" fill="#7b4fb0" fill-opacity="0.9"><title>lumex inlined C++17: 0.64 ns, 1.02x</title></circle>
<circle cx="527.5" cy="151.0" r="4" fill="#3c9d4a" fill-opacity="0.9"><title>boost C++11: 0.62 ns, 0.99x</title></circle>
<circle cx="531.5" cy="151.0" r="4" fill="#8fd19a" fill-opacity="0.9"><title>boost C++17: 0.65 ns, 1.03x</title></circle>
<text x="182" y="173.0" text-anchor="end">index_sum</text>
<circle cx="528.3" cy="169.0" r="4" fill="#d9822b" fill-opacity="0.9"><title>std C++17: 9.75 ns, 1.00x</title></circle>
<circle cx="533.4" cy="169.0" r="4" fill="#b0601a" fill-opacity="0.9"><title>std C++20: 10.20 ns, 1.05x</title></circle>
<circle cx="512.5" cy="169.0" r="4" fill="#1b6ca8" fill-opacity="0.9"><title>lumex C++11: 8.48 ns, 0.87x</title></circle>
<circle cx="520.9" cy="169.0" r="4" fill="#6fb1e0" fill-opacity="0.9"><title>lumex C++17: 9.13 ns, 0.94x</title></circle>
<circle cx="520.5" cy="169.0" r="4" fill="#7b4fb0" fill-opacity="0.9"><title>lumex inlined C++17: 9.11 ns, 0.93x</title></circle>
<circle cx="533.0" cy="169.0" r="4" fill="#3c9d4a" fill-opacity="0.9"><title>boost C++11: 10.17 ns, 1.04x</title></circle>
<circle cx="521.3" cy="169.0" r="4" fill="#8fd19a" fill-opacity="0.9"><title>boost C++17: 9.17 ns, 0.94x</title></circle>
<rect x="0" y="178.0" width="1000" height="18" fill="#f6f8fa"/>
<text x="182" y="191.0" text-anchor="end">range_sum</text>
<circle cx="528.3" cy="187.0" r="4" fill="#d9822b" fill-opacity="0.9"><title>std C++17: 9.89 ns, 1.00x</title></circle>
<circle cx="532.2" cy="187.0" r="4" fill="#b0601a" fill-opacity="0.9"><title>std C++20: 10.24 ns, 1.04x</title></circle>
<circle cx="512.6" cy="187.0" r="4" fill="#1b6ca8" fill-opacity="0.9"><title>lumex C++11: 8.61 ns, 0.87x</title></circle>
<circle cx="519.3" cy="187.0" r="4" fill="#6fb1e0" fill-opacity="0.9"><title>lumex C++17: 9.13 ns, 0.92x</title></circle>
<circle cx="521.8" cy="187.0" r="4" fill="#7b4fb0" fill-opacity="0.9"><title>lumex inlined C++17: 9.34 ns, 0.94x</title></circle>
<circle cx="532.2" cy="187.0" r="4" fill="#3c9d4a" fill-opacity="0.9"><title>boost C++11: 10.24 ns, 1.04x</title></circle>
<circle cx="521.1" cy="187.0" r="4" fill="#8fd19a" fill-opacity="0.9"><title>boost C++17: 9.28 ns, 0.94x</title></circle>
<text x="182" y="209.0" text-anchor="end">find_char</text>
<circle cx="528.3" cy="205.0" r="4" fill="#d9822b" fill-opacity="0.9"><title>std C++17: 1.74 ns, 1.00x</title></circle>
<circle cx="527.5" cy="205.0" r="4" fill="#b0601a" fill-opacity="0.9"><title>std C++20: 1.73 ns, 0.99x</title></circle>
<circle cx="602.5" cy="205.0" r="4" fill="#1b6ca8" fill-opacity="0.9"><title>lumex C++11: 3.36 ns, 1.93x</title></circle>
<circle cx="602.6" cy="205.0" r="4" fill="#6fb1e0" fill-opacity="0.9"><title>lumex C++17: 3.36 ns, 1.93x</title></circle>
<circle cx="528.4" cy="205.0" r="4" fill="#7b4fb0" fill-opacity="0.9"><title>lumex inlined C++17: 1.74 ns, 1.00x</title></circle>
<circle cx="523.3" cy="205.0" r="4" fill="#3c9d4a" fill-opacity="0.9"><title>boost C++11: 1.67 ns, 0.96x</title></circle>
<circle cx="525.3" cy="205.0" r="4" fill="#8fd19a" fill-opacity="0.9"><title>boost C++17: 1.70 ns, 0.97x</title></circle>
<rect x="0" y="214.0" width="1000" height="18" fill="#f6f8fa"/>
<text x="182" y="227.0" text-anchor="end">find_char_late</text>
<circle cx="528.3" cy="223.0" r="4" fill="#d9822b" fill-opacity="0.9"><title>std C++17: 2.71 ns, 1.00x</title></circle>
<circle cx="531.5" cy="223.0" r="4" fill="#b0601a" fill-opacity="0.9"><title>std C++20: 2.78 ns, 1.03x</title></circle>
<circle cx="563.6" cy="223.0" r="4" fill="#1b6ca8" fill-opacity="0.9"><title>lumex C++11: 3.70 ns, 1.37x</title></circle>
<circle cx="568.0" cy="223.0" r="4" fill="#6fb1e0" fill-opacity="0.9"><title>lumex C++17: 3.85 ns, 1.42x</title></circle>
<circle cx="531.3" cy="223.0" r="4" fill="#7b4fb0" fill-opacity="0.9"><title>lumex inlined C++17: 2.78 ns, 1.03x</title></circle>
<circle cx="526.5" cy="223.0" r="4" fill="#3c9d4a" fill-opacity="0.9"><title>boost C++11: 2.66 ns, 0.98x</title></circle>
<circle cx="520.9" cy="223.0" r="4" fill="#8fd19a" fill-opacity="0.9"><title>boost C++17: 2.53 ns, 0.94x</title></circle>
<text x="182" y="245.0" text-anchor="end">find_char_miss</text>
<circle cx="528.3" cy="241.0" r="4" fill="#d9822b" fill-opacity="0.9"><title>std C++17: 2.92 ns, 1.00x</title></circle>
<circle cx="528.3" cy="241.0" r="4" fill="#b0601a" fill-opacity="0.9"><title>std C++20: 2.92 ns, 1.00x</title></circle>
<circle cx="567.5" cy="241.0" r="4" fill="#1b6ca8" fill-opacity="0.9"><title>lumex C++11: 4.13 ns, 1.41x</title></circle>
<circle cx="568.4" cy="241.0" r="4" fill="#6fb1e0" fill-opacity="0.9"><title>lumex C++17: 4.16 ns, 1.43x</title></circle>
<circle cx="532.9" cy="241.0" r="4" fill="#7b4fb0" fill-opacity="0.9"><title>lumex inlined C++17: 3.04 ns, 1.04x</title></circle>
<circle cx="536.0" cy="241.0" r="4" fill="#3c9d4a" fill-opacity="0.9"><title>boost C++11: 3.12 ns, 1.07x</title></circle>
<circle cx="537.3" cy="241.0" r="4" fill="#8fd19a" fill-opacity="0.9"><title>boost C++17: 3.16 ns, 1.08x</title></circle>
<rect x="0" y="250.0" width="1000" height="18" fill="#f6f8fa"/>
<text x="182" y="263.0" text-anchor="end">rfind_char</text>
<circle cx="528.3" cy="259.0" r="4" fill="#d9822b" fill-opacity="0.9"><title>std C++17: 7.80 ns, 1.00x</title></circle>
<circle cx="528.8" cy="259.0" r="4" fill="#b0601a" fill-opacity="0.9"><title>std C++20: 7.84 ns, 1.00x</title></circle>
<circle cx="541.0" cy="259.0" r="4" fill="#1b6ca8" fill-opacity="0.9"><title>lumex C++11: 8.74 ns, 1.12x</title></circle>
<circle cx="544.9" cy="259.0" r="4" fill="#6fb1e0" fill-opacity="0.9"><title>lumex C++17: 9.04 ns, 1.16x</title></circle>
<circle cx="524.6" cy="259.0" r="4" fill="#7b4fb0" fill-opacity="0.9"><title>lumex inlined C++17: 7.55 ns, 0.97x</title></circle>
<circle cx="518.2" cy="259.0" r="4" fill="#3c9d4a" fill-opacity="0.9"><title>boost C++11: 7.14 ns, 0.91x</title></circle>
<circle cx="520.0" cy="259.0" r="4" fill="#8fd19a" fill-opacity="0.9"><title>boost C++17: 7.25 ns, 0.93x</title></circle>
<text x="182" y="281.0" text-anchor="end">find_str_hit</text>
<circle cx="528.3" cy="277.0" r="4" fill="#d9822b" fill-opacity="0.9"><title>std C++17: 5.46 ns, 1.00x</title></circle>
<circle cx="521.6" cy="277.0" r="4" fill="#b0601a" fill-opacity="0.9"><title>std C++20: 5.14 ns, 0.94x</title></circle>
<circle cx="589.2" cy="277.0" r="4" fill="#1b6ca8" fill-opacity="0.9"><title>lumex C++11: 9.36 ns, 1.71x</title></circle>
<circle cx="587.9" cy="277.0" r="4" fill="#6fb1e0" fill-opacity="0.9"><title>lumex C++17: 9.25 ns, 1.70x</title></circle>
<circle cx="592.2" cy="277.0" r="4" fill="#7b4fb0" fill-opacity="0.9"><title>lumex inlined C++17: 9.61 ns, 1.76x</title></circle>
<circle cx="537.4" cy="277.0" r="4" fill="#3c9d4a" fill-opacity="0.9"><title>boost C++11: 5.92 ns, 1.08x</title></circle>
<circle cx="537.8" cy="277.0" r="4" fill="#8fd19a" fill-opacity="0.9"><title>boost C++17: 5.94 ns, 1.09x</title></circle>
<rect x="0" y="286.0" width="1000" height="18" fill="#f6f8fa"/>
<text x="182" y="299.0" text-anchor="end">find_str_miss</text>
<circle cx="528.3" cy="295.0" r="4" fill="#d9822b" fill-opacity="0.9"><title>std C++17: 8.12 ns, 1.00x</title></circle>
<circle cx="542.9" cy="295.0" r="4" fill="#b0601a" fill-opacity="0.9"><title>std C++20: 9.24 ns, 1.14x</title></circle>
<circle cx="583.2" cy="295.0" r="4" fill="#1b6ca8" fill-opacity="0.9"><title>lumex C++11: 13.20 ns, 1.63x</title></circle>
<circle cx="580.4" cy="295.0" r="4" fill="#6fb1e0" fill-opacity="0.9"><title>lumex C++17: 12.88 ns, 1.59x</title></circle>
<circle cx="577.8" cy="295.0" r="4" fill="#7b4fb0" fill-opacity="0.9"><title>lumex inlined C++17: 12.58 ns, 1.55x</title></circle>
<circle cx="538.5" cy="295.0" r="4" fill="#3c9d4a" fill-opacity="0.9"><title>boost C++11: 8.89 ns, 1.10x</title></circle>
<circle cx="539.1" cy="295.0" r="4" fill="#8fd19a" fill-opacity="0.9"><title>boost C++17: 8.93 ns, 1.10x</title></circle>
<text x="182" y="317.0" text-anchor="end">find_str_text</text>
<circle cx="528.3" cy="313.0" r="4" fill="#d9822b" fill-opacity="0.9"><title>std C++17: 1448 ns, 1.00x</title></circle>
<circle cx="522.7" cy="313.0" r="4" fill="#b0601a" fill-opacity="0.9"><title>std C++20: 1378 ns, 0.95x</title></circle>
<circle cx="541.8" cy="313.0" r="4" fill="#1b6ca8" fill-opacity="0.9"><title>lumex C++11: 1631 ns, 1.13x</title></circle>
<circle cx="547.7" cy="313.0" r="4" fill="#6fb1e0" fill-opacity="0.9"><title>lumex C++17: 1720 ns, 1.19x</title></circle>
<circle cx="557.2" cy="313.0" r="4" fill="#7b4fb0" fill-opacity="0.9"><title>lumex inlined C++17: 1871 ns, 1.29x</title></circle>
<circle cx="528.9" cy="313.0" r="4" fill="#3c9d4a" fill-opacity="0.9"><title>boost C++11: 1455 ns, 1.01x</title></circle>
<circle cx="529.0" cy="313.0" r="4" fill="#8fd19a" fill-opacity="0.9"><title>boost C++17: 1457 ns, 1.01x</title></circle>
<rect x="0" y="322.0" width="1000" height="18" fill="#f6f8fa"/>
<text x="182" y="335.0" text-anchor="end">find_str_absent</text>
<circle cx="528.3" cy="331.0" r="4" fill="#d9822b" fill-opacity="0.9"><title>std C++17: 28.63 ns, 1.00x</title></circle>
<circle cx="528.5" cy="331.0" r="4" fill="#b0601a" fill-opacity="0.9"><title>std C++20: 28.68 ns, 1.00x</title></circle>
<circle cx="926.0" cy="331.0" r="4" fill="#1b6ca8" fill-opacity="0.9"><title>lumex C++11: 969.2 ns, 33.86x</title></circle>
<circle cx="926.0" cy="331.0" r="4" fill="#6fb1e0" fill-opacity="0.9"><title>lumex C++17: 969.6 ns, 33.87x</title></circle>
<circle cx="929.8" cy="331.0" r="4" fill="#7b4fb0" fill-opacity="0.9"><title>lumex inlined C++17: 1002 ns, 35.01x</title></circle>
<circle cx="539.9" cy="331.0" r="4" fill="#3c9d4a" fill-opacity="0.9"><title>boost C++11: 31.73 ns, 1.11x</title></circle>
<circle cx="540.4" cy="331.0" r="4" fill="#8fd19a" fill-opacity="0.9"><title>boost C++17: 31.87 ns, 1.11x</title></circle>
<text x="182" y="353.0" text-anchor="end">rfind_str</text>
<circle cx="528.3" cy="349.0" r="4" fill="#d9822b" fill-opacity="0.9"><title>std C++17: 14.09 ns, 1.00x</title></circle>
<circle cx="528.6" cy="349.0" r="4" fill="#b0601a" fill-opacity="0.9"><title>std C++20: 14.13 ns, 1.00x</title></circle>
<circle cx="520.6" cy="349.0" r="4" fill="#1b6ca8" fill-opacity="0.9"><title>lumex C++11: 13.17 ns, 0.93x</title></circle>
<circle cx="521.2" cy="349.0" r="4" fill="#6fb1e0" fill-opacity="0.9"><title>lumex C++17: 13.23 ns, 0.94x</title></circle>
<circle cx="541.3" cy="349.0" r="4" fill="#7b4fb0" fill-opacity="0.9"><title>lumex inlined C++17: 15.82 ns, 1.12x</title></circle>
<circle cx="530.4" cy="349.0" r="4" fill="#3c9d4a" fill-opacity="0.9"><title>boost C++11: 14.36 ns, 1.02x</title></circle>
<circle cx="529.8" cy="349.0" r="4" fill="#8fd19a" fill-opacity="0.9"><title>boost C++17: 14.28 ns, 1.01x</title></circle>
<rect x="0" y="358.0" width="1000" height="18" fill="#f6f8fa"/>
<text x="182" y="371.0" text-anchor="end">find_first_of</text>
<circle cx="528.3" cy="367.0" r="4" fill="#d9822b" fill-opacity="0.9"><title>std C++17: 18.67 ns, 1.00x</title></circle>
<circle cx="536.6" cy="367.0" r="4" fill="#b0601a" fill-opacity="0.9"><title>std C++20: 20.11 ns, 1.08x</title></circle>
<circle cx="537.1" cy="367.0" r="4" fill="#1b6ca8" fill-opacity="0.9"><title>lumex C++11: 20.18 ns, 1.08x</title></circle>
<circle cx="532.3" cy="367.0" r="4" fill="#6fb1e0" fill-opacity="0.9"><title>lumex C++17: 19.35 ns, 1.04x</title></circle>
<circle cx="518.0" cy="367.0" r="4" fill="#7b4fb0" fill-opacity="0.9"><title>lumex inlined C++17: 17.04 ns, 0.91x</title></circle>
<circle cx="530.1" cy="367.0" r="4" fill="#3c9d4a" fill-opacity="0.9"><title>boost C++11: 18.97 ns, 1.02x</title></circle>
<circle cx="519.6" cy="367.0" r="4" fill="#8fd19a" fill-opacity="0.9"><title>boost C++17: 17.29 ns, 0.93x</title></circle>
<text x="182" y="389.0" text-anchor="end">find_last_of</text>
<circle cx="528.3" cy="385.0" r="4" fill="#d9822b" fill-opacity="0.9"><title>std C++17: 5.53 ns, 1.00x</title></circle>
<circle cx="528.1" cy="385.0" r="4" fill="#b0601a" fill-opacity="0.9"><title>std C++20: 5.52 ns, 1.00x</title></circle>
<circle cx="497.4" cy="385.0" r="4" fill="#1b6ca8" fill-opacity="0.9"><title>lumex C++11: 4.21 ns, 0.76x</title></circle>
<circle cx="497.4" cy="385.0" r="4" fill="#6fb1e0" fill-opacity="0.9"><title>lumex C++17: 4.21 ns, 0.76x</title></circle>
<circle cx="540.0" cy="385.0" r="4" fill="#7b4fb0" fill-opacity="0.9"><title>lumex inlined C++17: 6.13 ns, 1.11x</title></circle>
<circle cx="564.2" cy="385.0" r="4" fill="#3c9d4a" fill-opacity="0.9"><title>boost C++11: 7.60 ns, 1.37x</title></circle>
<circle cx="503.3" cy="385.0" r="4" fill="#8fd19a" fill-opacity="0.9"><title>boost C++17: 4.43 ns, 0.80x</title></circle>
<rect x="0" y="394.0" width="1000" height="18" fill="#f6f8fa"/>
<text x="182" y="407.0" text-anchor="end">find_first_not_of</text>
<circle cx="528.3" cy="403.0" r="4" fill="#d9822b" fill-opacity="0.9"><title>std C++17: 21.04 ns, 1.00x</title></circle>
<circle cx="537.9" cy="403.0" r="4" fill="#b0601a" fill-opacity="0.9"><title>std C++20: 22.93 ns, 1.09x</title></circle>
<circle cx="562.4" cy="403.0" r="4" fill="#1b6ca8" fill-opacity="0.9"><title>lumex C++11: 28.46 ns, 1.35x</title></circle>
<circle cx="562.7" cy="403.0" r="4" fill="#6fb1e0" fill-opacity="0.9"><title>lumex C++17: 28.55 ns, 1.36x</title></circle>
<circle cx="562.4" cy="403.0" r="4" fill="#7b4fb0" fill-opacity="0.9"><title>lumex inlined C++17: 28.47 ns, 1.35x</title></circle>
<circle cx="539.7" cy="403.0" r="4" fill="#3c9d4a" fill-opacity="0.9"><title>boost C++11: 23.28 ns, 1.11x</title></circle>
<circle cx="539.7" cy="403.0" r="4" fill="#8fd19a" fill-opacity="0.9"><title>boost C++17: 23.29 ns, 1.11x</title></circle>
<text x="182" y="425.0" text-anchor="end">substr</text>
<circle cx="528.3" cy="421.0" r="4" fill="#d9822b" fill-opacity="0.9"><title>std C++17: 0.99 ns, 1.00x</title></circle>
<circle cx="526.7" cy="421.0" r="4" fill="#b0601a" fill-opacity="0.9"><title>std C++20: 0.98 ns, 0.99x</title></circle>
<circle cx="563.0" cy="421.0" r="4" fill="#1b6ca8" fill-opacity="0.9"><title>lumex C++11: 1.35 ns, 1.36x</title></circle>
<circle cx="562.6" cy="421.0" r="4" fill="#6fb1e0" fill-opacity="0.9"><title>lumex C++17: 1.34 ns, 1.36x</title></circle>
<circle cx="529.5" cy="421.0" r="4" fill="#7b4fb0" fill-opacity="0.9"><title>lumex inlined C++17: 1.00 ns, 1.01x</title></circle>
<circle cx="528.7" cy="421.0" r="4" fill="#3c9d4a" fill-opacity="0.9"><title>boost C++11: 1.00 ns, 1.00x</title></circle>
<circle cx="529.2" cy="421.0" r="4" fill="#8fd19a" fill-opacity="0.9"><title>boost C++17: 1.00 ns, 1.01x</title></circle>
<rect x="0" y="430.0" width="1000" height="18" fill="#f6f8fa"/>
<text x="182" y="443.0" text-anchor="end">substr_tail</text>
<circle cx="528.3" cy="439.0" r="4" fill="#d9822b" fill-opacity="0.9"><title>std C++17: 0.84 ns, 1.00x</title></circle>
<circle cx="529.0" cy="439.0" r="4" fill="#b0601a" fill-opacity="0.9"><title>std C++20: 0.84 ns, 1.01x</title></circle>
<circle cx="582.6" cy="439.0" r="4" fill="#1b6ca8" fill-opacity="0.9"><title>lumex C++11: 1.35 ns, 1.62x</title></circle>
<circle cx="582.0" cy="439.0" r="4" fill="#6fb1e0" fill-opacity="0.9"><title>lumex C++17: 1.34 ns, 1.61x</title></circle>
<circle cx="520.4" cy="439.0" r="4" fill="#7b4fb0" fill-opacity="0.9"><title>lumex inlined C++17: 0.78 ns, 0.93x</title></circle>
<circle cx="531.0" cy="439.0" r="4" fill="#3c9d4a" fill-opacity="0.9"><title>boost C++11: 0.86 ns, 1.02x</title></circle>
<circle cx="527.4" cy="439.0" r="4" fill="#8fd19a" fill-opacity="0.9"><title>boost C++17: 0.83 ns, 0.99x</title></circle>
<text x="182" y="461.0" text-anchor="end">compare_equal</text>
<circle cx="528.3" cy="457.0" r="4" fill="#d9822b" fill-opacity="0.9"><title>std C++17: 2.66 ns, 1.00x</title></circle>
<circle cx="531.0" cy="457.0" r="4" fill="#b0601a" fill-opacity="0.9"><title>std C++20: 2.72 ns, 1.02x</title></circle>
<circle cx="548.5" cy="457.0" r="4" fill="#1b6ca8" fill-opacity="0.9"><title>lumex C++11: 3.18 ns, 1.20x</title></circle>
<circle cx="546.1" cy="457.0" r="4" fill="#6fb1e0" fill-opacity="0.9"><title>lumex C++17: 3.11 ns, 1.17x</title></circle>
<circle cx="501.3" cy="457.0" r="4" fill="#7b4fb0" fill-opacity="0.9"><title>lumex inlined C++17: 2.09 ns, 0.79x</title></circle>
<circle cx="503.3" cy="457.0" r="4" fill="#3c9d4a" fill-opacity="0.9"><title>boost C++11: 2.13 ns, 0.80x</title></circle>
<circle cx="504.3" cy="457.0" r="4" fill="#8fd19a" fill-opacity="0.9"><title>boost C++17: 2.15 ns, 0.81x</title></circle>
<rect x="0" y="466.0" width="1000" height="18" fill="#f6f8fa"/>
<text x="182" y="479.0" text-anchor="end">compare_early</text>
<circle cx="528.3" cy="475.0" r="4" fill="#d9822b" fill-opacity="0.9"><title>std C++17: 1.88 ns, 1.00x</title></circle>
<circle cx="526.9" cy="475.0" r="4" fill="#b0601a" fill-opacity="0.9"><title>std C++20: 1.85 ns, 0.99x</title></circle>
<circle cx="558.1" cy="475.0" r="4" fill="#1b6ca8" fill-opacity="0.9"><title>lumex C++11: 2.44 ns, 1.30x</title></circle>
<circle cx="557.4" cy="475.0" r="4" fill="#6fb1e0" fill-opacity="0.9"><title>lumex C++17: 2.43 ns, 1.29x</title></circle>
<circle cx="519.5" cy="475.0" r="4" fill="#7b4fb0" fill-opacity="0.9"><title>lumex inlined C++17: 1.74 ns, 0.93x</title></circle>
<circle cx="518.4" cy="475.0" r="4" fill="#3c9d4a" fill-opacity="0.9"><title>boost C++11: 1.72 ns, 0.92x</title></circle>
<circle cx="518.7" cy="475.0" r="4" fill="#8fd19a" fill-opacity="0.9"><title>boost C++17: 1.72 ns, 0.92x</title></circle>
<text x="182" y="497.0" text-anchor="end">compare_late</text>
<circle cx="528.3" cy="493.0" r="4" fill="#d9822b" fill-opacity="0.9"><title>std C++17: 3.24 ns, 1.00x</title></circle>
<circle cx="525.0" cy="493.0" r="4" fill="#b0601a" fill-opacity="0.9"><title>std C++20: 3.15 ns, 0.97x</title></circle>
<circle cx="566.7" cy="493.0" r="4" fill="#1b6ca8" fill-opacity="0.9"><title>lumex C++11: 4.56 ns, 1.41x</title></circle>
<circle cx="570.2" cy="493.0" r="4" fill="#6fb1e0" fill-opacity="0.9"><title>lumex C++17: 4.70 ns, 1.45x</title></circle>
<circle cx="531.6" cy="493.0" r="4" fill="#7b4fb0" fill-opacity="0.9"><title>lumex inlined C++17: 3.34 ns, 1.03x</title></circle>
<circle cx="525.9" cy="493.0" r="4" fill="#3c9d4a" fill-opacity="0.9"><title>boost C++11: 3.17 ns, 0.98x</title></circle>
<circle cx="525.1" cy="493.0" r="4" fill="#8fd19a" fill-opacity="0.9"><title>boost C++17: 3.15 ns, 0.97x</title></circle>
<rect x="0" y="502.0" width="1000" height="18" fill="#f6f8fa"/>
<text x="182" y="515.0" text-anchor="end">eq_equal</text>
<circle cx="528.3" cy="511.0" r="4" fill="#d9822b" fill-opacity="0.9"><title>std C++17: 2.06 ns, 1.00x</title></circle>
<circle cx="528.2" cy="511.0" r="4" fill="#b0601a" fill-opacity="0.9"><title>std C++20: 2.06 ns, 1.00x</title></circle>
<circle cx="559.7" cy="511.0" r="4" fill="none" stroke="#1b6ca8" stroke-width="1.6"><title>lumex C++11: 2.72 ns, 1.32x (unstable)</title></circle>
<circle cx="562.0" cy="511.0" r="4" fill="#6fb1e0" fill-opacity="0.9"><title>lumex C++17: 2.78 ns, 1.35x</title></circle>
<circle cx="523.3" cy="511.0" r="4" fill="#7b4fb0" fill-opacity="0.9"><title>lumex inlined C++17: 1.97 ns, 0.96x</title></circle>
<circle cx="527.5" cy="511.0" r="4" fill="#3c9d4a" fill-opacity="0.9"><title>boost C++11: 2.05 ns, 0.99x</title></circle>
<circle cx="527.4" cy="511.0" r="4" fill="#8fd19a" fill-opacity="0.9"><title>boost C++17: 2.05 ns, 0.99x</title></circle>
<text x="182" y="533.0" text-anchor="end">eq_size</text>
<circle cx="528.3" cy="529.0" r="4" fill="#d9822b" fill-opacity="0.9"><title>std C++17: 0.30 ns, 1.00x</title></circle>
<circle cx="522.3" cy="529.0" r="4" fill="#b0601a" fill-opacity="0.9"><title>std C++20: 0.28 ns, 0.95x</title></circle>
<circle cx="572.3" cy="529.0" r="4" fill="#1b6ca8" fill-opacity="0.9"><title>lumex C++11: 0.44 ns, 1.48x</title></circle>
<circle cx="569.2" cy="529.0" r="4" fill="#6fb1e0" fill-opacity="0.9"><title>lumex C++17: 0.43 ns, 1.44x</title></circle>
<circle cx="528.2" cy="529.0" r="4" fill="#7b4fb0" fill-opacity="0.9"><title>lumex inlined C++17: 0.30 ns, 1.00x</title></circle>
<circle cx="528.4" cy="529.0" r="4" fill="#3c9d4a" fill-opacity="0.9"><title>boost C++11: 0.30 ns, 1.00x</title></circle>
<circle cx="532.8" cy="529.0" r="4" fill="#8fd19a" fill-opacity="0.9"><title>boost C++17: 0.31 ns, 1.04x</title></circle>
<rect x="0" y="538.0" width="1000" height="18" fill="#f6f8fa"/>
<text x="182" y="551.0" text-anchor="end">eq_late</text>
<circle cx="528.3" cy="547.0" r="4" fill="#d9822b" fill-opacity="0.9"><title>std C++17: 3.12 ns, 1.00x</title></circle>
<circle cx="524.2" cy="547.0" r="4" fill="#b0601a" fill-opacity="0.9"><title>std C++20: 3.01 ns, 0.96x</title></circle>
<circle cx="572.4" cy="547.0" r="4" fill="#1b6ca8" fill-opacity="0.9"><title>lumex C++11: 4.61 ns, 1.48x</title></circle>
<circle cx="567.7" cy="547.0" r="4" fill="#6fb1e0" fill-opacity="0.9"><title>lumex C++17: 4.42 ns, 1.42x</title></circle>
<circle cx="529.6" cy="547.0" r="4" fill="#7b4fb0" fill-opacity="0.9"><title>lumex inlined C++17: 3.16 ns, 1.01x</title></circle>
<circle cx="532.1" cy="547.0" r="4" fill="#3c9d4a" fill-opacity="0.9"><title>boost C++11: 3.23 ns, 1.03x</title></circle>
<circle cx="529.5" cy="547.0" r="4" fill="#8fd19a" fill-opacity="0.9"><title>boost C++17: 3.15 ns, 1.01x</title></circle>
<text x="182" y="569.0" text-anchor="end">less</text>
<circle cx="528.3" cy="565.0" r="4" fill="#d9822b" fill-opacity="0.9"><title>std C++17: 2.12 ns, 1.00x</title></circle>
<circle cx="526.2" cy="565.0" r="4" fill="#b0601a" fill-opacity="0.9"><title>std C++20: 2.08 ns, 0.98x</title></circle>
<circle cx="546.6" cy="565.0" r="4" fill="#1b6ca8" fill-opacity="0.9"><title>lumex C++11: 2.49 ns, 1.18x</title></circle>
<circle cx="546.4" cy="565.0" r="4" fill="#6fb1e0" fill-opacity="0.9"><title>lumex C++17: 2.48 ns, 1.17x</title></circle>
<circle cx="524.2" cy="565.0" r="4" fill="#7b4fb0" fill-opacity="0.9"><title>lumex inlined C++17: 2.04 ns, 0.96x</title></circle>
<circle cx="565.1" cy="565.0" r="4" fill="#3c9d4a" fill-opacity="0.9"><title>boost C++11: 2.93 ns, 1.39x</title></circle>
<circle cx="564.9" cy="565.0" r="4" fill="#8fd19a" fill-opacity="0.9"><title>boost C++17: 2.93 ns, 1.38x</title></circle>
<rect x="0" y="574.0" width="1000" height="18" fill="#f6f8fa"/>
<text x="182" y="587.0" text-anchor="end">eq_literal</text>
<circle cx="528.3" cy="583.0" r="4" fill="#d9822b" fill-opacity="0.9"><title>std C++17: 0.31 ns, 1.00x</title></circle>
<circle cx="522.1" cy="583.0" r="4" fill="#b0601a" fill-opacity="0.9"><title>std C++20: 0.29 ns, 0.95x</title></circle>
<circle cx="723.3" cy="583.0" r="4" fill="#1b6ca8" fill-opacity="0.9"><title>lumex C++11: 1.72 ns, 5.62x</title></circle>
<circle cx="723.9" cy="583.0" r="4" fill="#6fb1e0" fill-opacity="0.9"><title>lumex C++17: 1.73 ns, 5.66x</title></circle>
<circle cx="521.1" cy="583.0" r="4" fill="#7b4fb0" fill-opacity="0.9"><title>lumex inlined C++17: 0.29 ns, 0.94x</title></circle>
<circle cx="529.4" cy="583.0" r="4" fill="#3c9d4a" fill-opacity="0.9"><title>boost C++11: 0.31 ns, 1.01x</title></circle>
<circle cx="523.4" cy="583.0" r="4" fill="#8fd19a" fill-opacity="0.9"><title>boost C++17: 0.29 ns, 0.96x</title></circle>
<text x="182" y="605.0" text-anchor="end">pass_by_value</text>
<circle cx="528.3" cy="601.0" r="4" fill="#d9822b" fill-opacity="0.9"><title>std C++17: 0.71 ns, 1.00x</title></circle>
<circle cx="528.8" cy="601.0" r="4" fill="#b0601a" fill-opacity="0.9"><title>std C++20: 0.71 ns, 1.00x</title></circle>
<circle cx="522.8" cy="601.0" r="4" fill="#1b6ca8" fill-opacity="0.9"><title>lumex C++11: 0.67 ns, 0.95x</title></circle>
<circle cx="523.4" cy="601.0" r="4" fill="#6fb1e0" fill-opacity="0.9"><title>lumex C++17: 0.68 ns, 0.96x</title></circle>
<circle cx="528.7" cy="601.0" r="4" fill="#7b4fb0" fill-opacity="0.9"><title>lumex inlined C++17: 0.71 ns, 1.00x</title></circle>
<circle cx="528.6" cy="601.0" r="4" fill="#3c9d4a" fill-opacity="0.9"><title>boost C++11: 0.71 ns, 1.00x</title></circle>
<circle cx="527.8" cy="601.0" r="4" fill="#8fd19a" fill-opacity="0.9"><title>boost C++17: 0.70 ns, 1.00x</title></circle>
<rect x="0" y="610.0" width="1000" height="18" fill="#f6f8fa"/>
<text x="182" y="623.0" text-anchor="end">return_value</text>
<circle cx="528.3" cy="619.0" r="4" fill="#d9822b" fill-opacity="0.9"><title>std C++17: 0.86 ns, 1.00x</title></circle>
<circle cx="528.4" cy="619.0" r="4" fill="#b0601a" fill-opacity="0.9"><title>std C++20: 0.86 ns, 1.00x</title></circle>
<circle cx="524.0" cy="619.0" r="4" fill="#1b6ca8" fill-opacity="0.9"><title>lumex C++11: 0.83 ns, 0.96x</title></circle>
<circle cx="521.5" cy="619.0" r="4" fill="#6fb1e0" fill-opacity="0.9"><title>lumex C++17: 0.81 ns, 0.94x</title></circle>
<circle cx="529.3" cy="619.0" r="4" fill="#7b4fb0" fill-opacity="0.9"><title>lumex inlined C++17: 0.87 ns, 1.01x</title></circle>
<circle cx="529.8" cy="619.0" r="4" fill="#3c9d4a" fill-opacity="0.9"><title>boost C++11: 0.87 ns, 1.01x</title></circle>
<circle cx="529.9" cy="619.0" r="4" fill="#8fd19a" fill-opacity="0.9"><title>boost C++17: 0.87 ns, 1.01x</title></circle>
<text x="182" y="641.0" text-anchor="end">sort</text>
<circle cx="528.3" cy="637.0" r="4" fill="#d9822b" fill-opacity="0.9"><title>std C++17: 29.21 ns, 1.00x</title></circle>
<circle cx="516.8" cy="637.0" r="4" fill="#b0601a" fill-opacity="0.9"><title>std C++20: 26.39 ns, 0.90x</title></circle>
<circle cx="576.6" cy="637.0" r="4" fill="#1b6ca8" fill-opacity="0.9"><title>lumex C++11: 44.83 ns, 1.53x</title></circle>
<circle cx="571.9" cy="637.0" r="4" fill="#6fb1e0" fill-opacity="0.9"><title>lumex C++17: 42.97 ns, 1.47x</title></circle>
<circle cx="531.6" cy="637.0" r="4" fill="#7b4fb0" fill-opacity="0.9"><title>lumex inlined C++17: 30.09 ns, 1.03x</title></circle>
<circle cx="531.0" cy="637.0" r="4" fill="#3c9d4a" fill-opacity="0.9"><title>boost C++11: 29.93 ns, 1.02x</title></circle>
<circle cx="533.4" cy="637.0" r="4" fill="#8fd19a" fill-opacity="0.9"><title>boost C++17: 30.58 ns, 1.05x</title></circle>
<rect x="0" y="646.0" width="1000" height="18" fill="#f6f8fa"/>
<text x="182" y="659.0" text-anchor="end">map_lookup</text>
<circle cx="528.3" cy="655.0" r="4" fill="#d9822b" fill-opacity="0.9"><title>std C++17: 30.47 ns, 1.00x</title></circle>
<circle cx="517.0" cy="655.0" r="4" fill="#b0601a" fill-opacity="0.9"><title>std C++20: 27.58 ns, 0.91x</title></circle>
<circle cx="610.5" cy="655.0" r="4" fill="#1b6ca8" fill-opacity="0.9"><title>lumex C++11: 63.11 ns, 2.07x</title></circle>
<circle cx="603.0" cy="655.0" r="4" fill="#6fb1e0" fill-opacity="0.9"><title>lumex C++17: 59.05 ns, 1.94x</title></circle>
<circle cx="505.8" cy="655.0" r="4" fill="#7b4fb0" fill-opacity="0.9"><title>lumex inlined C++17: 24.98 ns, 0.82x</title></circle>
<circle cx="526.8" cy="655.0" r="4" fill="#3c9d4a" fill-opacity="0.9"><title>boost C++11: 30.07 ns, 0.99x</title></circle>
<circle cx="520.1" cy="655.0" r="4" fill="#8fd19a" fill-opacity="0.9"><title>boost C++17: 28.35 ns, 0.93x</title></circle>
<text x="182" y="677.0" text-anchor="end">split</text>
<circle cx="528.3" cy="673.0" r="4" fill="#d9822b" fill-opacity="0.9"><title>std C++17: 2204 ns, 1.00x</title></circle>
<circle cx="528.2" cy="673.0" r="4" fill="#b0601a" fill-opacity="0.9"><title>std C++20: 2204 ns, 1.00x</title></circle>
<circle cx="553.0" cy="673.0" r="4" fill="#1b6ca8" fill-opacity="0.9"><title>lumex C++11: 2744 ns, 1.24x</title></circle>
<circle cx="555.2" cy="673.0" r="4" fill="#6fb1e0" fill-opacity="0.9"><title>lumex C++17: 2799 ns, 1.27x</title></circle>
<circle cx="530.2" cy="673.0" r="4" fill="#7b4fb0" fill-opacity="0.9"><title>lumex inlined C++17: 2242 ns, 1.02x</title></circle>
<circle cx="526.5" cy="673.0" r="4" fill="#3c9d4a" fill-opacity="0.9"><title>boost C++11: 2171 ns, 0.98x</title></circle>
<circle cx="526.5" cy="673.0" r="4" fill="#8fd19a" fill-opacity="0.9"><title>boost C++17: 2170 ns, 0.98x</title></circle>
<rect x="0" y="682.0" width="1000" height="18" fill="#f6f8fa"/>
<text x="182" y="695.0" text-anchor="end">starts_with</text>
<circle cx="528.3" cy="691.0" r="4" fill="#b0601a" fill-opacity="0.9"><title>std C++20: 2.31 ns, 1.00x</title></circle>
<circle cx="518.4" cy="691.0" r="4" fill="#1b6ca8" fill-opacity="0.9"><title>lumex C++11: 2.12 ns, 0.92x</title></circle>
<circle cx="522.5" cy="691.0" r="4" fill="#6fb1e0" fill-opacity="0.9"><title>lumex C++17: 2.20 ns, 0.95x</title></circle>
<circle cx="505.7" cy="691.0" r="4" fill="#7b4fb0" fill-opacity="0.9"><title>lumex inlined C++17: 1.89 ns, 0.82x</title></circle>
<circle cx="513.4" cy="691.0" r="4" fill="#3c9d4a" fill-opacity="0.9"><title>boost C++11: 2.03 ns, 0.88x</title></circle>
<circle cx="513.7" cy="691.0" r="4" fill="#8fd19a" fill-opacity="0.9"><title>boost C++17: 2.03 ns, 0.88x</title></circle>
<text x="182" y="713.0" text-anchor="end">ends_with</text>
<circle cx="528.3" cy="709.0" r="4" fill="#b0601a" fill-opacity="0.9"><title>std C++20: 1.81 ns, 1.00x</title></circle>
<circle cx="536.2" cy="709.0" r="4" fill="#1b6ca8" fill-opacity="0.9"><title>lumex C++11: 1.95 ns, 1.07x</title></circle>
<circle cx="554.6" cy="709.0" r="4" fill="#6fb1e0" fill-opacity="0.9"><title>lumex C++17: 2.29 ns, 1.26x</title></circle>
<circle cx="518.5" cy="709.0" r="4" fill="#7b4fb0" fill-opacity="0.9"><title>lumex inlined C++17: 1.66 ns, 0.92x</title></circle>
<circle cx="527.8" cy="709.0" r="4" fill="#3c9d4a" fill-opacity="0.9"><title>boost C++11: 1.81 ns, 1.00x</title></circle>
<circle cx="526.1" cy="709.0" r="4" fill="#8fd19a" fill-opacity="0.9"><title>boost C++17: 1.78 ns, 0.98x</title></circle>
<rect x="0" y="718.0" width="1000" height="18" fill="#f6f8fa"/>
<text x="182" y="731.0" text-anchor="end">starts_with_lit</text>
<circle cx="528.3" cy="727.0" r="4" fill="#b0601a" fill-opacity="0.9"><title>std C++20: 0.46 ns, 1.00x</title></circle>
<circle cx="755.3" cy="727.0" r="4" fill="#1b6ca8" fill-opacity="0.9"><title>lumex C++11: 3.41 ns, 7.47x</title></circle>
<circle cx="765.0" cy="727.0" r="4" fill="#6fb1e0" fill-opacity="0.9"><title>lumex C++17: 3.71 ns, 8.14x</title></circle>
<circle cx="529.7" cy="727.0" r="4" fill="#7b4fb0" fill-opacity="0.9"><title>lumex inlined C++17: 0.46 ns, 1.01x</title></circle>
<circle cx="528.8" cy="727.0" r="4" fill="#3c9d4a" fill-opacity="0.9"><title>boost C++11: 0.46 ns, 1.00x</title></circle>
<circle cx="533.2" cy="727.0" r="4" fill="#8fd19a" fill-opacity="0.9"><title>boost C++17: 0.48 ns, 1.04x</title></circle>
<text x="182" y="749.0" text-anchor="end">ends_with_lit</text>
<circle cx="528.3" cy="745.0" r="4" fill="#b0601a" fill-opacity="0.9"><title>std C++20: 0.57 ns, 1.00x</title></circle>
<circle cx="736.0" cy="745.0" r="4" fill="#1b6ca8" fill-opacity="0.9"><title>lumex C++11: 3.62 ns, 6.30x</title></circle>
<circle cx="746.5" cy="745.0" r="4" fill="#6fb1e0" fill-opacity="0.9"><title>lumex C++17: 3.97 ns, 6.91x</title></circle>
<circle cx="526.4" cy="745.0" r="4" fill="#7b4fb0" fill-opacity="0.9"><title>lumex inlined C++17: 0.56 ns, 0.98x</title></circle>
<circle cx="526.4" cy="745.0" r="4" fill="#3c9d4a" fill-opacity="0.9"><title>boost C++11: 0.56 ns, 0.98x</title></circle>
<circle cx="526.3" cy="745.0" r="4" fill="#8fd19a" fill-opacity="0.9"><title>boost C++17: 0.56 ns, 0.98x</title></circle>
<rect x="0" y="754.0" width="1000" height="18" fill="#f6f8fa"/>
<text x="182" y="767.0" text-anchor="end">starts_with_chr</text>
<circle cx="528.3" cy="763.0" r="4" fill="#b0601a" fill-opacity="0.9"><title>std C++20: 0.46 ns, 1.00x</title></circle>
<circle cx="588.7" cy="763.0" r="4" fill="#1b6ca8" fill-opacity="0.9"><title>lumex C++11: 0.78 ns, 1.71x</title></circle>
<circle cx="596.1" cy="763.0" r="4" fill="#6fb1e0" fill-opacity="0.9"><title>lumex C++17: 0.84 ns, 1.82x</title></circle>
<circle cx="529.8" cy="763.0" r="4" fill="#7b4fb0" fill-opacity="0.9"><title>lumex inlined C++17: 0.47 ns, 1.01x</title></circle>
<circle cx="528.6" cy="763.0" r="4" fill="#3c9d4a" fill-opacity="0.9"><title>boost C++11: 0.46 ns, 1.00x</title></circle>
<circle cx="530.9" cy="763.0" r="4" fill="#8fd19a" fill-opacity="0.9"><title>boost C++17: 0.47 ns, 1.02x</title></circle>
<text x="182" y="785.0" text-anchor="end">hash</text>
<circle cx="528.3" cy="781.0" r="4" fill="#d9822b" fill-opacity="0.9"><title>std C++17: 4.64 ns, 1.00x</title></circle>
<circle cx="528.4" cy="781.0" r="4" fill="#b0601a" fill-opacity="0.9"><title>std C++20: 4.65 ns, 1.00x</title></circle>
<circle cx="529.3" cy="781.0" r="4" fill="#6fb1e0" fill-opacity="0.9"><title>lumex C++17: 4.68 ns, 1.01x</title></circle>
<circle cx="527.8" cy="781.0" r="4" fill="#7b4fb0" fill-opacity="0.9"><title>lumex inlined C++17: 4.63 ns, 1.00x</title></circle>
<circle cx="546.4" cy="781.0" r="4" fill="#3c9d4a" fill-opacity="0.9"><title>boost C++11: 5.45 ns, 1.17x</title></circle>
<circle cx="544.5" cy="781.0" r="4" fill="#8fd19a" fill-opacity="0.9"><title>boost C++17: 5.36 ns, 1.15x</title></circle>
<rect x="0" y="790.0" width="1000" height="18" fill="#f6f8fa"/>
<text x="182" y="803.0" text-anchor="end">to_std</text>
<circle cx="528.3" cy="799.0" r="4" fill="#d9822b" fill-opacity="0.9"><title>std C++17: 0.62 ns, 1.00x</title></circle>
<circle cx="529.3" cy="799.0" r="4" fill="#b0601a" fill-opacity="0.9"><title>std C++20: 0.63 ns, 1.01x</title></circle>
<circle cx="551.6" cy="799.0" r="4" fill="#6fb1e0" fill-opacity="0.9"><title>lumex C++17: 0.77 ns, 1.23x</title></circle>
<circle cx="539.9" cy="799.0" r="4" fill="#7b4fb0" fill-opacity="0.9"><title>lumex inlined C++17: 0.69 ns, 1.11x</title></circle>
<text x="182" y="821.0" text-anchor="end">from_std</text>
<circle cx="528.3" cy="817.0" r="4" fill="#d9822b" fill-opacity="0.9"><title>std C++17: 0.73 ns, 1.00x</title></circle>
<circle cx="528.3" cy="817.0" r="4" fill="#b0601a" fill-opacity="0.9"><title>std C++20: 0.73 ns, 1.00x</title></circle>
<circle cx="545.4" cy="817.0" r="4" fill="#6fb1e0" fill-opacity="0.9"><title>lumex C++17: 0.85 ns, 1.16x</title></circle>
<circle cx="546.1" cy="817.0" r="4" fill="#7b4fb0" fill-opacity="0.9"><title>lumex inlined C++17: 0.85 ns, 1.17x</title></circle>
<rect x="0" y="826.0" width="1000" height="18" fill="#f6f8fa"/>
<text x="182" y="839.0" text-anchor="end">eq_std</text>
<circle cx="528.3" cy="835.0" r="4" fill="#d9822b" fill-opacity="0.9"><title>std C++17: 1.80 ns, 1.00x</title></circle>
<circle cx="529.1" cy="835.0" r="4" fill="#b0601a" fill-opacity="0.9"><title>std C++20: 1.81 ns, 1.01x</title></circle>
<circle cx="576.7" cy="835.0" r="4" fill="#6fb1e0" fill-opacity="0.9"><title>lumex C++17: 2.76 ns, 1.54x</title></circle>
<circle cx="521.3" cy="835.0" r="4" fill="#7b4fb0" fill-opacity="0.9"><title>lumex inlined C++17: 1.69 ns, 0.94x</title></circle>
<text x="182" y="857.0" text-anchor="end">less_std</text>
<circle cx="528.3" cy="853.0" r="4" fill="#d9822b" fill-opacity="0.9"><title>std C++17: 2.04 ns, 1.00x</title></circle>
<circle cx="525.1" cy="853.0" r="4" fill="#b0601a" fill-opacity="0.9"><title>std C++20: 1.99 ns, 0.97x</title></circle>
<circle cx="563.6" cy="853.0" r="4" fill="#6fb1e0" fill-opacity="0.9"><title>lumex C++17: 2.80 ns, 1.37x</title></circle>
<circle cx="522.2" cy="853.0" r="4" fill="#7b4fb0" fill-opacity="0.9"><title>lumex inlined C++17: 1.94 ns, 0.95x</title></circle>
</svg>
