<svg xmlns="http://www.w3.org/2000/svg" width="1000" height="940" viewBox="0 0 1000 940" font-family="Segoe UI, Arial, sans-serif" font-size="11">
<rect width="100%" height="100%" fill="#ffffff"/>
<text x="190" y="22" font-size="15" font-weight="bold">string_view, time relative to std::string_view C++17 (library static)</text>
<text x="190" y="40" fill="#555">GCC 13.2.0; 12th Gen Intel(R) Core(TM) i7-12700K</text>
<circle cx="195" cy="55" r="4.5" fill="#d9822b"/>
<text x="204" y="59">std C++17</text>
<circle cx="274" cy="55" r="4.5" fill="#b0601a"/>
<text x="283" y="59">std C++20</text>
<circle cx="354" cy="55" r="4.5" fill="#1b6ca8"/>
<text x="363" y="59">lumex C++11</text>
<circle cx="446" cy="55" r="4.5" fill="#6fb1e0"/>
<text x="455" y="59">lumex C++17</text>
<circle cx="539" cy="55" r="4.5" fill="#7b4fb0"/>
<text x="548" y="59">lumex inlined C++17</text>
<circle cx="680" cy="55" r="4.5" fill="#3c9d4a"/>
<text x="689" y="59">boost C++11</text>
<circle cx="773" cy="55" r="4.5" fill="#8fd19a"/>
<text x="782" y="59">boost C++17</text>
<line x1="190.0" y1="64" x2="190.0" y2="862" stroke="#ddd"/>
<text x="190.0" y="876" text-anchor="middle" fill="#555">0.05x</text>
<line x1="268.3" y1="64" x2="268.3" y2="862" stroke="#ddd"/>
<text x="268.3" y="876" text-anchor="middle" fill="#555">0.1x</text>
<line x1="346.5" y1="64" x2="346.5" y2="862" stroke="#ddd"/>
<text x="346.5" y="876" text-anchor="middle" fill="#555">0.2x</text>
<line x1="450.0" y1="64" x2="450.0" y2="862" stroke="#ddd"/>
<text x="450.0" y="876" text-anchor="middle" fill="#555">0.5x</text>
<line x1="528.3" y1="64" x2="528.3" y2="862" stroke="#444"/>
<text x="528.3" y="876" text-anchor="middle" fill="#555">1x</text>
<line x1="606.5" y1="64" x2="606.5" y2="862" stroke="#ddd"/>
<text x="606.5" y="876" text-anchor="middle" fill="#555">2x</text>
<line x1="710.0" y1="64" x2="710.0" y2="862" stroke="#ddd"/>
<text x="710.0" y="876" text-anchor="middle" fill="#555">5x</text>
<line x1="788.3" y1="64" x2="788.3" y2="862" stroke="#ddd"/>
<text x="788.3" y="876" text-anchor="middle" fill="#555">10x</text>
<line x1="866.5" y1="64" x2="866.5" y2="862" stroke="#ddd"/>
<text x="866.5" y="876" text-anchor="middle" fill="#555">20x</text>
<line x1="970.0" y1="64" x2="970.0" y2="862" stroke="#ddd"/>
<text x="970.0" y="876" text-anchor="middle" fill="#555">50x</text>
<text x="580" y="896" text-anchor="middle" fill="#555">time relative to std::string_view C++17 (C++20 for starts_with and ends_with); log scale, clipped at 0.05x and 50x; left is faster</text>
<text x="580" y="912" text-anchor="middle" fill="#555">a hollow dot: the processes of that executable disagree by more than 25 % (code and stack placement), read it as noise</text>
<rect x="0" y="70.0" width="1000" height="18" fill="#f6f8fa"/>
<text x="182" y="83.0" text-anchor="end">ctor_literal</text>
<circle cx="528.3" cy="79.0" r="4" fill="#d9822b" fill-opacity="0.9"><title>std C++17: 0.58 ns, 1.00x</title></circle>
<circle cx="528.3" cy="79.0" r="4" fill="#b0601a" fill-opacity="0.9"><title>std C++20: 0.58 ns, 1.00x</title></circle>
<circle cx="670.0" cy="79.0" r="4" fill="#1b6ca8" fill-opacity="0.9"><title>lumex C++11: 2.05 ns, 3.51x</title></circle>
<circle cx="669.1" cy="79.0" r="4" fill="#6fb1e0" fill-opacity="0.9"><title>lumex C++17: 2.03 ns, 3.48x</title></circle>
<circle cx="526.8" cy="79.0" r="4" fill="#7b4fb0" fill-opacity="0.9"><title>lumex inlined C++17: 0.58 ns, 0.99x</title></circle>
<circle cx="528.2" cy="79.0" r="4" fill="#3c9d4a" fill-opacity="0.9"><title>boost C++11: 0.58 ns, 1.00x</title></circle>
<circle cx="527.6" cy="79.0" r="4" fill="#8fd19a" fill-opacity="0.9"><title>boost C++17: 0.58 ns, 0.99x</title></circle>
<text x="182" y="101.0" text-anchor="end">ctor_cstr</text>
<circle cx="528.3" cy="97.0" r="4" fill="#d9822b" fill-opacity="0.9"><title>std C++17: 2.97 ns, 1.00x</title></circle>
<circle cx="528.8" cy="97.0" r="4" fill="#b0601a" fill-opacity="0.9"><title>std C++20: 2.99 ns, 1.00x</title></circle>
<circle cx="544.0" cy="97.0" r="4" fill="#1b6ca8" fill-opacity="0.9"><title>lumex C++11: 3.42 ns, 1.15x</title></circle>
<circle cx="542.2" cy="97.0" r="4" fill="#6fb1e0" fill-opacity="0.9"><title>lumex C++17: 3.36 ns, 1.13x</title></circle>
<circle cx="523.1" cy="97.0" r="4" fill="#7b4fb0" fill-opacity="0.9"><title>lumex inlined C++17: 2.84 ns, 0.96x</title></circle>
<circle cx="525.2" cy="97.0" r="4" fill="#3c9d4a" fill-opacity="0.9"><title>boost C++11: 2.89 ns, 0.97x</title></circle>
<circle cx="527.0" cy="97.0" r="4" fill="#8fd19a" fill-opacity="0.9"><title>boost C++17: 2.94 ns, 0.99x</title></circle>
<rect x="0" y="106.0" width="1000" height="18" fill="#f6f8fa"/>
<text x="182" y="119.0" text-anchor="end">ctor_string</text>
<circle cx="528.3" cy="115.0" r="4" fill="#d9822b" fill-opacity="0.9"><title>std C++17: 0.90 ns, 1.00x</title></circle>
<circle cx="518.6" cy="115.0" r="4" fill="#b0601a" fill-opacity="0.9"><title>std C++20: 0.83 ns, 0.92x</title></circle>
<circle cx="542.8" cy="115.0" r="4" fill="#1b6ca8" fill-opacity="0.9"><title>lumex C++11: 1.02 ns, 1.14x</title></circle>
<circle cx="541.4" cy="115.0" r="4" fill="#6fb1e0" fill-opacity="0.9"><title>lumex C++17: 1.01 ns, 1.12x</title></circle>
<circle cx="524.4" cy="115.0" r="4" fill="#7b4fb0" fill-opacity="0.9"><title>lumex inlined C++17: 0.87 ns, 0.97x</title></circle>
<circle cx="522.1" cy="115.0" r="4" fill="#3c9d4a" fill-opacity="0.9"><title>boost C++11: 0.85 ns, 0.95x</title></circle>
<circle cx="521.9" cy="115.0" r="4" fill="#8fd19a" fill-opacity="0.9"><title>boost C++17: 0.85 ns, 0.95x</title></circle>
<text x="182" y="137.0" text-anchor="end">ctor_ptr_size</text>
<circle cx="528.3" cy="133.0" r="4" fill="#d9822b" fill-opacity="0.9"><title>std C++17: 0.77 ns, 1.00x</title></circle>
<circle cx="528.7" cy="133.0" r="4" fill="#b0601a" fill-opacity="0.9"><title>std C++20: 0.77 ns, 1.00x</title></circle>
<circle cx="527.3" cy="133.0" r="4" fill="#1b6ca8" fill-opacity="0.9"><title>lumex C++11: 0.76 ns, 0.99x</title></circle>
<circle cx="527.9" cy="133.0" r="4" fill="#6fb1e0" fill-opacity="0.9"><title>lumex C++17: 0.76 ns, 1.00x</title></circle>
<circle cx="529.6" cy="133.0" r="4" fill="#7b4fb0" fill-opacity="0.9"><title>lumex inlined C++17: 0.78 ns, 1.01x</title></circle>
<circle cx="528.6" cy="133.0" r="4" fill="#3c9d4a" fill-opacity="0.9"><title>boost C++11: 0.77 ns, 1.00x</title></circle>
<circle cx="528.5" cy="133.0" r="4" fill="#8fd19a" fill-opacity="0.9"><title>boost C++17: 0.77 ns, 1.00x</title></circle>
<rect x="0" y="142.0" width="1000" height="18" fill="#f6f8fa"/>
<text x="182" y="155.0" text-anchor="end">copy</text>
<circle cx="528.3" cy="151.0" r="4" fill="#d9822b" fill-opacity="0.9"><title>std C++17: 0.66 ns, 1.00x</title></circle>
<circle cx="527.5" cy="151.0" r="4" fill="#b0601a" fill-opacity="0.9"><title>std C++20: 0.65 ns, 0.99x</title></circle>
<circle cx="529.7" cy="151.0" r="4" fill="#1b6ca8" fill-opacity="0.9"><title>lumex C++11: 0.67 ns, 1.01x</title></circle>
<circle cx="531.1" cy="151.0" r="4" fill="#6fb1e0" fill-opacity="0.9"><title>lumex C++17: 0.68 ns, 1.03x</title></circle>
<circle cx="527.7" cy="151.0" r="4" fill="#7b4fb0" fill-opacity="0.9"><title>lumex inlined C++17: 0.66 ns, 0.99x</title></circle>
<circle cx="530.5" cy="151.0" r="4" fill="#3c9d4a" fill-opacity="0.9"><title>boost C++11: 0.67 ns, 1.02x</title></circle>
<circle cx="530.5" cy="151.0" r="4" fill="#8fd19a" fill-opacity="0.9"><title>boost C++17: 0.67 ns, 1.02x</title></circle>
<text x="182" y="173.0" text-anchor="end">index_sum</text>
<circle cx="528.3" cy="169.0" r="4" fill="#d9822b" fill-opacity="0.9"><title>std C++17: 9.99 ns, 1.00x</title></circle>
<circle cx="531.4" cy="169.0" r="4" fill="#b0601a" fill-opacity="0.9"><title>std C++20: 10.28 ns, 1.03x</title></circle>
<circle cx="531.7" cy="169.0" r="4" fill="#1b6ca8" fill-opacity="0.9"><title>lumex C++11: 10.30 ns, 1.03x</title></circle>
<circle cx="531.9" cy="169.0" r="4" fill="#6fb1e0" fill-opacity="0.9"><title>lumex C++17: 10.32 ns, 1.03x</title></circle>
<circle cx="531.6" cy="169.0" r="4" fill="#7b4fb0" fill-opacity="0.9"><title>lumex inlined C++17: 10.29 ns, 1.03x</title></circle>
<circle cx="531.4" cy="169.0" r="4" fill="#3c9d4a" fill-opacity="0.9"><title>boost C++11: 10.27 ns, 1.03x</title></circle>
<circle cx="526.9" cy="169.0" r="4" fill="#8fd19a" fill-opacity="0.9"><title>boost C++17: 9.87 ns, 0.99x</title></circle>
<rect x="0" y="178.0" width="1000" height="18" fill="#f6f8fa"/>
<text x="182" y="191.0" text-anchor="end">range_sum</text>
<circle cx="528.3" cy="187.0" r="4" fill="#d9822b" fill-opacity="0.9"><title>std C++17: 9.88 ns, 1.00x</title></circle>
<circle cx="532.4" cy="187.0" r="4" fill="#b0601a" fill-opacity="0.9"><title>std C++20: 10.24 ns, 1.04x</title></circle>
<circle cx="534.2" cy="187.0" r="4" fill="#1b6ca8" fill-opacity="0.9"><title>lumex C++11: 10.41 ns, 1.05x</title></circle>
<circle cx="534.9" cy="187.0" r="4" fill="#6fb1e0" fill-opacity="0.9"><title>lumex C++17: 10.47 ns, 1.06x</title></circle>
<circle cx="533.0" cy="187.0" r="4" fill="#7b4fb0" fill-opacity="0.9"><title>lumex inlined C++17: 10.30 ns, 1.04x</title></circle>
<circle cx="533.4" cy="187.0" r="4" fill="#3c9d4a" fill-opacity="0.9"><title>boost C++11: 10.34 ns, 1.05x</title></circle>
<circle cx="529.1" cy="187.0" r="4" fill="#8fd19a" fill-opacity="0.9"><title>boost C++17: 9.95 ns, 1.01x</title></circle>
<text x="182" y="209.0" text-anchor="end">find_char</text>
<circle cx="528.3" cy="205.0" r="4" fill="#d9822b" fill-opacity="0.9"><title>std C++17: 1.73 ns, 1.00x</title></circle>
<circle cx="525.6" cy="205.0" r="4" fill="#b0601a" fill-opacity="0.9"><title>std C++20: 1.69 ns, 0.98x</title></circle>
<circle cx="582.8" cy="205.0" r="4" fill="#1b6ca8" fill-opacity="0.9"><title>lumex C++11: 2.80 ns, 1.62x</title></circle>
<circle cx="582.6" cy="205.0" r="4" fill="#6fb1e0" fill-opacity="0.9"><title>lumex C++17: 2.80 ns, 1.62x</title></circle>
<circle cx="528.8" cy="205.0" r="4" fill="#7b4fb0" fill-opacity="0.9"><title>lumex inlined C++17: 1.74 ns, 1.00x</title></circle>
<circle cx="528.6" cy="205.0" r="4" fill="#3c9d4a" fill-opacity="0.9"><title>boost C++11: 1.73 ns, 1.00x</title></circle>
<circle cx="524.0" cy="205.0" r="4" fill="#8fd19a" fill-opacity="0.9"><title>boost C++17: 1.66 ns, 0.96x</title></circle>
<rect x="0" y="214.0" width="1000" height="18" fill="#f6f8fa"/>
<text x="182" y="227.0" text-anchor="end">find_char_late</text>
<circle cx="528.3" cy="223.0" r="4" fill="#d9822b" fill-opacity="0.9"><title>std C++17: 2.72 ns, 1.00x</title></circle>
<circle cx="520.9" cy="223.0" r="4" fill="#b0601a" fill-opacity="0.9"><title>std C++20: 2.55 ns, 0.94x</title></circle>
<circle cx="546.1" cy="223.0" r="4" fill="#1b6ca8" fill-opacity="0.9"><title>lumex C++11: 3.18 ns, 1.17x</title></circle>
<circle cx="549.9" cy="223.0" r="4" fill="#6fb1e0" fill-opacity="0.9"><title>lumex C++17: 3.29 ns, 1.21x</title></circle>
<circle cx="519.6" cy="223.0" r="4" fill="#7b4fb0" fill-opacity="0.9"><title>lumex inlined C++17: 2.52 ns, 0.93x</title></circle>
<circle cx="521.5" cy="223.0" r="4" fill="#3c9d4a" fill-opacity="0.9"><title>boost C++11: 2.56 ns, 0.94x</title></circle>
<circle cx="528.0" cy="223.0" r="4" fill="#8fd19a" fill-opacity="0.9"><title>boost C++17: 2.71 ns, 1.00x</title></circle>
<text x="182" y="245.0" text-anchor="end">find_char_miss</text>
<circle cx="528.3" cy="241.0" r="4" fill="#d9822b" fill-opacity="0.9"><title>std C++17: 2.79 ns, 1.00x</title></circle>
<circle cx="535.8" cy="241.0" r="4" fill="#b0601a" fill-opacity="0.9"><title>std C++20: 2.98 ns, 1.07x</title></circle>
<circle cx="561.0" cy="241.0" r="4" fill="#1b6ca8" fill-opacity="0.9"><title>lumex C++11: 3.73 ns, 1.34x</title></circle>
<circle cx="564.1" cy="241.0" r="4" fill="#6fb1e0" fill-opacity="0.9"><title>lumex C++17: 3.83 ns, 1.37x</title></circle>
<circle cx="543.4" cy="241.0" r="4" fill="#7b4fb0" fill-opacity="0.9"><title>lumex inlined C++17: 3.19 ns, 1.14x</title></circle>
<circle cx="535.5" cy="241.0" r="4" fill="#3c9d4a" fill-opacity="0.9"><title>boost C++11: 2.98 ns, 1.07x</title></circle>
<circle cx="532.7" cy="241.0" r="4" fill="#8fd19a" fill-opacity="0.9"><title>boost C++17: 2.90 ns, 1.04x</title></circle>
<rect x="0" y="250.0" width="1000" height="18" fill="#f6f8fa"/>
<text x="182" y="263.0" text-anchor="end">rfind_char</text>
<circle cx="528.3" cy="259.0" r="4" fill="#d9822b" fill-opacity="0.9"><title>std C++17: 7.76 ns, 1.00x</title></circle>
<circle cx="533.2" cy="259.0" r="4" fill="#b0601a" fill-opacity="0.9"><title>std C++20: 8.11 ns, 1.04x</title></circle>
<circle cx="546.9" cy="259.0" r="4" fill="#1b6ca8" fill-opacity="0.9"><title>lumex C++11: 9.15 ns, 1.18x</title></circle>
<circle cx="547.3" cy="259.0" r="4" fill="#6fb1e0" fill-opacity="0.9"><title>lumex C++17: 9.19 ns, 1.18x</title></circle>
<circle cx="526.0" cy="259.0" r="4" fill="#7b4fb0" fill-opacity="0.9"><title>lumex inlined C++17: 7.60 ns, 0.98x</title></circle>
<circle cx="521.2" cy="259.0" r="4" fill="#3c9d4a" fill-opacity="0.9"><title>boost C++11: 7.29 ns, 0.94x</title></circle>
<circle cx="519.2" cy="259.0" r="4" fill="#8fd19a" fill-opacity="0.9"><title>boost C++17: 7.16 ns, 0.92x</title></circle>
<text x="182" y="281.0" text-anchor="end">find_str_hit</text>
<circle cx="528.3" cy="277.0" r="4" fill="#d9822b" fill-opacity="0.9"><title>std C++17: 5.09 ns, 1.00x</title></circle>
<circle cx="528.1" cy="277.0" r="4" fill="#b0601a" fill-opacity="0.9"><title>std C++20: 5.09 ns, 1.00x</title></circle>
<circle cx="601.0" cy="277.0" r="4" fill="#1b6ca8" fill-opacity="0.9"><title>lumex C++11: 9.69 ns, 1.90x</title></circle>
<circle cx="597.8" cy="277.0" r="4" fill="#6fb1e0" fill-opacity="0.9"><title>lumex C++17: 9.42 ns, 1.85x</title></circle>
<circle cx="599.7" cy="277.0" r="4" fill="#7b4fb0" fill-opacity="0.9"><title>lumex inlined C++17: 9.59 ns, 1.88x</title></circle>
<circle cx="544.0" cy="277.0" r="4" fill="#3c9d4a" fill-opacity="0.9"><title>boost C++11: 5.85 ns, 1.15x</title></circle>
<circle cx="568.1" cy="277.0" r="4" fill="#8fd19a" fill-opacity="0.9"><title>boost C++17: 7.25 ns, 1.42x</title></circle>
<rect x="0" y="286.0" width="1000" height="18" fill="#f6f8fa"/>
<text x="182" y="299.0" text-anchor="end">find_str_miss</text>
<circle cx="528.3" cy="295.0" r="4" fill="#d9822b" fill-opacity="0.9"><title>std C++17: 8.33 ns, 1.00x</title></circle>
<circle cx="528.0" cy="295.0" r="4" fill="#b0601a" fill-opacity="0.9"><title>std C++20: 8.31 ns, 1.00x</title></circle>
<circle cx="589.0" cy="295.0" r="4" fill="#1b6ca8" fill-opacity="0.9"><title>lumex C++11: 14.27 ns, 1.71x</title></circle>
<circle cx="576.8" cy="295.0" r="4" fill="#6fb1e0" fill-opacity="0.9"><title>lumex C++17: 12.81 ns, 1.54x</title></circle>
<circle cx="578.9" cy="295.0" r="4" fill="#7b4fb0" fill-opacity="0.9"><title>lumex inlined C++17: 13.05 ns, 1.57x</title></circle>
<circle cx="522.5" cy="295.0" r="4" fill="#3c9d4a" fill-opacity="0.9"><title>boost C++11: 7.92 ns, 0.95x</title></circle>
<circle cx="526.7" cy="295.0" r="4" fill="#8fd19a" fill-opacity="0.9"><title>boost C++17: 8.21 ns, 0.99x</title></circle>
<text x="182" y="317.0" text-anchor="end">find_str_text</text>
<circle cx="528.3" cy="313.0" r="4" fill="#d9822b" fill-opacity="0.9"><title>std C++17: 1452 ns, 1.00x</title></circle>
<circle cx="529.0" cy="313.0" r="4" fill="#b0601a" fill-opacity="0.9"><title>std C++20: 1461 ns, 1.01x</title></circle>
<circle cx="558.9" cy="313.0" r="4" fill="#1b6ca8" fill-opacity="0.9"><title>lumex C++11: 1904 ns, 1.31x</title></circle>
<circle cx="555.2" cy="313.0" r="4" fill="#6fb1e0" fill-opacity="0.9"><title>lumex C++17: 1842 ns, 1.27x</title></circle>
<circle cx="555.5" cy="313.0" r="4" fill="#7b4fb0" fill-opacity="0.9"><title>lumex inlined C++17: 1847 ns, 1.27x</title></circle>
<circle cx="530.6" cy="313.0" r="4" fill="#3c9d4a" fill-opacity="0.9"><title>boost C++11: 1482 ns, 1.02x</title></circle>
<circle cx="525.1" cy="313.0" r="4" fill="#8fd19a" fill-opacity="0.9"><title>boost C++17: 1411 ns, 0.97x</title></circle>
<rect x="0" y="322.0" width="1000" height="18" fill="#f6f8fa"/>
<text x="182" y="335.0" text-anchor="end">find_str_absent</text>
<circle cx="528.3" cy="331.0" r="4" fill="#d9822b" fill-opacity="0.9"><title>std C++17: 29.01 ns, 1.00x</title></circle>
<circle cx="527.8" cy="331.0" r="4" fill="#b0601a" fill-opacity="0.9"><title>std C++20: 28.90 ns, 1.00x</title></circle>
<circle cx="928.0" cy="331.0" r="4" fill="#1b6ca8" fill-opacity="0.9"><title>lumex C++11: 1000 ns, 34.47x</title></circle>
<circle cx="927.9" cy="331.0" r="4" fill="#6fb1e0" fill-opacity="0.9"><title>lumex C++17: 998.8 ns, 34.43x</title></circle>
<circle cx="927.7" cy="331.0" r="4" fill="#7b4fb0" fill-opacity="0.9"><title>lumex inlined C++17: 997.1 ns, 34.37x</title></circle>
<circle cx="526.5" cy="331.0" r="4" fill="#3c9d4a" fill-opacity="0.9"><title>boost C++11: 28.57 ns, 0.98x</title></circle>
<circle cx="527.1" cy="331.0" r="4" fill="#8fd19a" fill-opacity="0.9"><title>boost C++17: 28.70 ns, 0.99x</title></circle>
<text x="182" y="353.0" text-anchor="end">rfind_str</text>
<circle cx="528.3" cy="349.0" r="4" fill="#d9822b" fill-opacity="0.9"><title>std C++17: 14.21 ns, 1.00x</title></circle>
<circle cx="520.8" cy="349.0" r="4" fill="#b0601a" fill-opacity="0.9"><title>std C++20: 13.30 ns, 0.94x</title></circle>
<circle cx="540.3" cy="349.0" r="4" fill="#1b6ca8" fill-opacity="0.9"><title>lumex C++11: 15.80 ns, 1.11x</title></circle>
<circle cx="533.4" cy="349.0" r="4" fill="#6fb1e0" fill-opacity="0.9"><title>lumex C++17: 14.87 ns, 1.05x</title></circle>
<circle cx="531.9" cy="349.0" r="4" fill="#7b4fb0" fill-opacity="0.9"><title>lumex inlined C++17: 14.67 ns, 1.03x</title></circle>
<circle cx="523.3" cy="349.0" r="4" fill="#3c9d4a" fill-opacity="0.9"><title>boost C++11: 13.60 ns, 0.96x</title></circle>
<circle cx="522.7" cy="349.0" r="4" fill="#8fd19a" fill-opacity="0.9"><title>boost C++17: 13.52 ns, 0.95x</title></circle>
<rect x="0" y="358.0" width="1000" height="18" fill="#f6f8fa"/>
<text x="182" y="371.0" text-anchor="end">find_first_of</text>
<circle cx="528.3" cy="367.0" r="4" fill="#d9822b" fill-opacity="0.9"><title>std C++17: 18.31 ns, 1.00x</title></circle>
<circle cx="544.5" cy="367.0" r="4" fill="#b0601a" fill-opacity="0.9"><title>std C++20: 21.13 ns, 1.15x</title></circle>
<circle cx="530.1" cy="367.0" r="4" fill="#1b6ca8" fill-opacity="0.9"><title>lumex C++11: 18.61 ns, 1.02x</title></circle>
<circle cx="523.4" cy="367.0" r="4" fill="#6fb1e0" fill-opacity="0.9"><title>lumex C++17: 17.53 ns, 0.96x</title></circle>
<circle cx="521.4" cy="367.0" r="4" fill="#7b4fb0" fill-opacity="0.9"><title>lumex inlined C++17: 17.22 ns, 0.94x</title></circle>
<circle cx="531.7" cy="367.0" r="4" fill="#3c9d4a" fill-opacity="0.9"><title>boost C++11: 18.88 ns, 1.03x</title></circle>
<circle cx="522.7" cy="367.0" r="4" fill="#8fd19a" fill-opacity="0.9"><title>boost C++17: 17.43 ns, 0.95x</title></circle>
<text x="182" y="389.0" text-anchor="end">find_last_of</text>
<circle cx="528.3" cy="385.0" r="4" fill="#d9822b" fill-opacity="0.9"><title>std C++17: 5.47 ns, 1.00x</title></circle>
<circle cx="547.3" cy="385.0" r="4" fill="#b0601a" fill-opacity="0.9"><title>std C++20: 6.48 ns, 1.18x</title></circle>
<circle cx="521.4" cy="385.0" r="4" fill="#1b6ca8" fill-opacity="0.9"><title>lumex C++11: 5.15 ns, 0.94x</title></circle>
<circle cx="540.7" cy="385.0" r="4" fill="#6fb1e0" fill-opacity="0.9"><title>lumex C++17: 6.11 ns, 1.12x</title></circle>
<circle cx="556.9" cy="385.0" r="4" fill="#7b4fb0" fill-opacity="0.9"><title>lumex inlined C++17: 7.06 ns, 1.29x</title></circle>
<circle cx="504.7" cy="385.0" r="4" fill="#3c9d4a" fill-opacity="0.9"><title>boost C++11: 4.45 ns, 0.81x</title></circle>
<circle cx="505.4" cy="385.0" r="4" fill="#8fd19a" fill-opacity="0.9"><title>boost C++17: 4.47 ns, 0.82x</title></circle>
<rect x="0" y="394.0" width="1000" height="18" fill="#f6f8fa"/>
<text x="182" y="407.0" text-anchor="end">find_first_not_of</text>
<circle cx="528.3" cy="403.0" r="4" fill="#d9822b" fill-opacity="0.9"><title>std C++17: 20.80 ns, 1.00x</title></circle>
<circle cx="555.8" cy="403.0" r="4" fill="#b0601a" fill-opacity="0.9"><title>std C++20: 26.53 ns, 1.28x</title></circle>
<circle cx="563.8" cy="403.0" r="4" fill="#1b6ca8" fill-opacity="0.9"><title>lumex C++11: 28.47 ns, 1.37x</title></circle>
<circle cx="591.6" cy="403.0" r="4" fill="#6fb1e0" fill-opacity="0.9"><title>lumex C++17: 36.44 ns, 1.75x</title></circle>
<circle cx="556.0" cy="403.0" r="4" fill="#7b4fb0" fill-opacity="0.9"><title>lumex inlined C++17: 26.58 ns, 1.28x</title></circle>
<circle cx="537.2" cy="403.0" r="4" fill="#3c9d4a" fill-opacity="0.9"><title>boost C++11: 22.51 ns, 1.08x</title></circle>
<circle cx="544.6" cy="403.0" r="4" fill="#8fd19a" fill-opacity="0.9"><title>boost C++17: 24.04 ns, 1.16x</title></circle>
<text x="182" y="425.0" text-anchor="end">substr</text>
<circle cx="528.3" cy="421.0" r="4" fill="#d9822b" fill-opacity="0.9"><title>std C++17: 0.98 ns, 1.00x</title></circle>
<circle cx="530.8" cy="421.0" r="4" fill="#b0601a" fill-opacity="0.9"><title>std C++20: 1.00 ns, 1.02x</title></circle>
<circle cx="557.6" cy="421.0" r="4" fill="#1b6ca8" fill-opacity="0.9"><title>lumex C++11: 1.27 ns, 1.30x</title></circle>
<circle cx="557.0" cy="421.0" r="4" fill="#6fb1e0" fill-opacity="0.9"><title>lumex C++17: 1.26 ns, 1.29x</title></circle>
<circle cx="529.4" cy="421.0" r="4" fill="#7b4fb0" fill-opacity="0.9"><title>lumex inlined C++17: 0.99 ns, 1.01x</title></circle>
<circle cx="529.2" cy="421.0" r="4" fill="#3c9d4a" fill-opacity="0.9"><title>boost C++11: 0.99 ns, 1.01x</title></circle>
<circle cx="533.6" cy="421.0" r="4" fill="#8fd19a" fill-opacity="0.9"><title>boost C++17: 1.03 ns, 1.05x</title></circle>
<rect x="0" y="430.0" width="1000" height="18" fill="#f6f8fa"/>
<text x="182" y="443.0" text-anchor="end">substr_tail</text>
<circle cx="528.3" cy="439.0" r="4" fill="#d9822b" fill-opacity="0.9"><title>std C++17: 0.86 ns, 1.00x</title></circle>
<circle cx="527.9" cy="439.0" r="4" fill="#b0601a" fill-opacity="0.9"><title>std C++20: 0.86 ns, 1.00x</title></circle>
<circle cx="582.5" cy="439.0" r="4" fill="#1b6ca8" fill-opacity="0.9"><title>lumex C++11: 1.39 ns, 1.62x</title></circle>
<circle cx="582.4" cy="439.0" r="4" fill="#6fb1e0" fill-opacity="0.9"><title>lumex C++17: 1.39 ns, 1.61x</title></circle>
<circle cx="517.8" cy="439.0" r="4" fill="#7b4fb0" fill-opacity="0.9"><title>lumex inlined C++17: 0.79 ns, 0.91x</title></circle>
<circle cx="528.0" cy="439.0" r="4" fill="#3c9d4a" fill-opacity="0.9"><title>boost C++11: 0.86 ns, 1.00x</title></circle>
<circle cx="527.6" cy="439.0" r="4" fill="#8fd19a" fill-opacity="0.9"><title>boost C++17: 0.86 ns, 0.99x</title></circle>
<text x="182" y="461.0" text-anchor="end">compare_equal</text>
<circle cx="528.3" cy="457.0" r="4" fill="#d9822b" fill-opacity="0.9"><title>std C++17: 2.68 ns, 1.00x</title></circle>
<circle cx="527.9" cy="457.0" r="4" fill="#b0601a" fill-opacity="0.9"><title>std C++20: 2.67 ns, 1.00x</title></circle>
<circle cx="548.0" cy="457.0" r="4" fill="#1b6ca8" fill-opacity="0.9"><title>lumex C++11: 3.19 ns, 1.19x</title></circle>
<circle cx="547.3" cy="457.0" r="4" fill="#6fb1e0" fill-opacity="0.9"><title>lumex C++17: 3.16 ns, 1.18x</title></circle>
<circle cx="498.8" cy="457.0" r="4" fill="#7b4fb0" fill-opacity="0.9"><title>lumex inlined C++17: 2.06 ns, 0.77x</title></circle>
<circle cx="503.0" cy="457.0" r="4" fill="#3c9d4a" fill-opacity="0.9"><title>boost C++11: 2.14 ns, 0.80x</title></circle>
<circle cx="503.4" cy="457.0" r="4" fill="#8fd19a" fill-opacity="0.9"><title>boost C++17: 2.15 ns, 0.80x</title></circle>
<rect x="0" y="466.0" width="1000" height="18" fill="#f6f8fa"/>
<text x="182" y="479.0" text-anchor="end">compare_early</text>
<circle cx="528.3" cy="475.0" r="4" fill="#d9822b" fill-opacity="0.9"><title>std C++17: 1.78 ns, 1.00x</title></circle>
<circle cx="528.1" cy="475.0" r="4" fill="#b0601a" fill-opacity="0.9"><title>std C++20: 1.78 ns, 1.00x</title></circle>
<circle cx="557.1" cy="475.0" r="4" fill="#1b6ca8" fill-opacity="0.9"><title>lumex C++11: 2.30 ns, 1.29x</title></circle>
<circle cx="556.8" cy="475.0" r="4" fill="#6fb1e0" fill-opacity="0.9"><title>lumex C++17: 2.30 ns, 1.29x</title></circle>
<circle cx="527.5" cy="475.0" r="4" fill="#7b4fb0" fill-opacity="0.9"><title>lumex inlined C++17: 1.77 ns, 0.99x</title></circle>
<circle cx="527.9" cy="475.0" r="4" fill="#3c9d4a" fill-opacity="0.9"><title>boost C++11: 1.78 ns, 1.00x</title></circle>
<circle cx="525.1" cy="475.0" r="4" fill="#8fd19a" fill-opacity="0.9"><title>boost C++17: 1.73 ns, 0.97x</title></circle>
<text x="182" y="497.0" text-anchor="end">compare_late</text>
<circle cx="528.3" cy="493.0" r="4" fill="#d9822b" fill-opacity="0.9"><title>std C++17: 3.26 ns, 1.00x</title></circle>
<circle cx="524.9" cy="493.0" r="4" fill="#b0601a" fill-opacity="0.9"><title>std C++20: 3.16 ns, 0.97x</title></circle>
<circle cx="557.5" cy="493.0" r="4" fill="#1b6ca8" fill-opacity="0.9"><title>lumex C++11: 4.22 ns, 1.30x</title></circle>
<circle cx="561.3" cy="493.0" r="4" fill="#6fb1e0" fill-opacity="0.9"><title>lumex C++17: 4.36 ns, 1.34x</title></circle>
<circle cx="532.3" cy="493.0" r="4" fill="#7b4fb0" fill-opacity="0.9"><title>lumex inlined C++17: 3.37 ns, 1.04x</title></circle>
<circle cx="530.6" cy="493.0" r="4" fill="#3c9d4a" fill-opacity="0.9"><title>boost C++11: 3.32 ns, 1.02x</title></circle>
<circle cx="522.5" cy="493.0" r="4" fill="#8fd19a" fill-opacity="0.9"><title>boost C++17: 3.09 ns, 0.95x</title></circle>
<rect x="0" y="502.0" width="1000" height="18" fill="#f6f8fa"/>
<text x="182" y="515.0" text-anchor="end">eq_equal</text>
<circle cx="528.3" cy="511.0" r="4" fill="#d9822b" fill-opacity="0.9"><title>std C++17: 2.06 ns, 1.00x</title></circle>
<circle cx="528.4" cy="511.0" r="4" fill="#b0601a" fill-opacity="0.9"><title>std C++20: 2.06 ns, 1.00x</title></circle>
<circle cx="562.7" cy="511.0" r="4" fill="#1b6ca8" fill-opacity="0.9"><title>lumex C++11: 2.79 ns, 1.36x</title></circle>
<circle cx="560.9" cy="511.0" r="4" fill="#6fb1e0" fill-opacity="0.9"><title>lumex C++17: 2.75 ns, 1.34x</title></circle>
<circle cx="524.8" cy="511.0" r="4" fill="#7b4fb0" fill-opacity="0.9"><title>lumex inlined C++17: 2.00 ns, 0.97x</title></circle>
<circle cx="527.9" cy="511.0" r="4" fill="#3c9d4a" fill-opacity="0.9"><title>boost C++11: 2.05 ns, 1.00x</title></circle>
<circle cx="527.9" cy="511.0" r="4" fill="#8fd19a" fill-opacity="0.9"><title>boost C++17: 2.05 ns, 1.00x</title></circle>
<text x="182" y="533.0" text-anchor="end">eq_size</text>
<circle cx="528.3" cy="529.0" r="4" fill="#d9822b" fill-opacity="0.9"><title>std C++17: 0.28 ns, 1.00x</title></circle>
<circle cx="537.4" cy="529.0" r="4" fill="#b0601a" fill-opacity="0.9"><title>std C++20: 0.30 ns, 1.08x</title></circle>
<circle cx="579.2" cy="529.0" r="4" fill="#1b6ca8" fill-opacity="0.9"><title>lumex C++11: 0.43 ns, 1.57x</title></circle>
<circle cx="577.5" cy="529.0" r="4" fill="#6fb1e0" fill-opacity="0.9"><title>lumex C++17: 0.43 ns, 1.55x</title></circle>
<circle cx="541.2" cy="529.0" r="4" fill="#7b4fb0" fill-opacity="0.9"><title>lumex inlined C++17: 0.31 ns, 1.12x</title></circle>
<circle cx="536.4" cy="529.0" r="4" fill="#3c9d4a" fill-opacity="0.9"><title>boost C++11: 0.30 ns, 1.07x</title></circle>
<circle cx="537.4" cy="529.0" r="4" fill="#8fd19a" fill-opacity="0.9"><title>boost C++17: 0.30 ns, 1.08x</title></circle>
<rect x="0" y="538.0" width="1000" height="18" fill="#f6f8fa"/>
<text x="182" y="551.0" text-anchor="end">eq_late</text>
<circle cx="528.3" cy="547.0" r="4" fill="#d9822b" fill-opacity="0.9"><title>std C++17: 2.95 ns, 1.00x</title></circle>
<circle cx="533.0" cy="547.0" r="4" fill="#b0601a" fill-opacity="0.9"><title>std C++20: 3.08 ns, 1.04x</title></circle>
<circle cx="562.7" cy="547.0" r="4" fill="#1b6ca8" fill-opacity="0.9"><title>lumex C++11: 4.00 ns, 1.36x</title></circle>
<circle cx="566.3" cy="547.0" r="4" fill="#6fb1e0" fill-opacity="0.9"><title>lumex C++17: 4.13 ns, 1.40x</title></circle>
<circle cx="537.4" cy="547.0" r="4" fill="#7b4fb0" fill-opacity="0.9"><title>lumex inlined C++17: 3.20 ns, 1.08x</title></circle>
<circle cx="534.5" cy="547.0" r="4" fill="#3c9d4a" fill-opacity="0.9"><title>boost C++11: 3.12 ns, 1.06x</title></circle>
<circle cx="534.0" cy="547.0" r="4" fill="#8fd19a" fill-opacity="0.9"><title>boost C++17: 3.11 ns, 1.05x</title></circle>
<text x="182" y="569.0" text-anchor="end">less</text>
<circle cx="528.3" cy="565.0" r="4" fill="#d9822b" fill-opacity="0.9"><title>std C++17: 2.21 ns, 1.00x</title></circle>
<circle cx="529.3" cy="565.0" r="4" fill="#b0601a" fill-opacity="0.9"><title>std C++20: 2.23 ns, 1.01x</title></circle>
<circle cx="547.6" cy="565.0" r="4" fill="#1b6ca8" fill-opacity="0.9"><title>lumex C++11: 2.62 ns, 1.19x</title></circle>
<circle cx="550.0" cy="565.0" r="4" fill="#6fb1e0" fill-opacity="0.9"><title>lumex C++17: 2.67 ns, 1.21x</title></circle>
<circle cx="525.9" cy="565.0" r="4" fill="#7b4fb0" fill-opacity="0.9"><title>lumex inlined C++17: 2.16 ns, 0.98x</title></circle>
<circle cx="567.4" cy="565.0" r="4" fill="#3c9d4a" fill-opacity="0.9"><title>boost C++11: 3.12 ns, 1.41x</title></circle>
<circle cx="557.0" cy="565.0" r="4" fill="#8fd19a" fill-opacity="0.9"><title>boost C++17: 2.84 ns, 1.29x</title></circle>
<rect x="0" y="574.0" width="1000" height="18" fill="#f6f8fa"/>
<text x="182" y="587.0" text-anchor="end">eq_literal</text>
<circle cx="528.3" cy="583.0" r="4" fill="#d9822b" fill-opacity="0.9"><title>std C++17: 0.29 ns, 1.00x</title></circle>
<circle cx="527.7" cy="583.0" r="4" fill="#b0601a" fill-opacity="0.9"><title>std C++20: 0.29 ns, 1.00x</title></circle>
<circle cx="734.9" cy="583.0" r="4" fill="#1b6ca8" fill-opacity="0.9"><title>lumex C++11: 1.79 ns, 6.23x</title></circle>
<circle cx="735.3" cy="583.0" r="4" fill="#6fb1e0" fill-opacity="0.9"><title>lumex C++17: 1.79 ns, 6.26x</title></circle>
<circle cx="528.5" cy="583.0" r="4" fill="#7b4fb0" fill-opacity="0.9"><title>lumex inlined C++17: 0.29 ns, 1.00x</title></circle>
<circle cx="529.0" cy="583.0" r="4" fill="#3c9d4a" fill-opacity="0.9"><title>boost C++11: 0.29 ns, 1.01x</title></circle>
<circle cx="530.4" cy="583.0" r="4" fill="#8fd19a" fill-opacity="0.9"><title>boost C++17: 0.29 ns, 1.02x</title></circle>
<text x="182" y="605.0" text-anchor="end">pass_by_value</text>
<circle cx="528.3" cy="601.0" r="4" fill="#d9822b" fill-opacity="0.9"><title>std C++17: 0.66 ns, 1.00x</title></circle>
<circle cx="529.9" cy="601.0" r="4" fill="#b0601a" fill-opacity="0.9"><title>std C++20: 0.67 ns, 1.01x</title></circle>
<circle cx="528.9" cy="601.0" r="4" fill="#1b6ca8" fill-opacity="0.9"><title>lumex C++11: 0.67 ns, 1.01x</title></circle>
<circle cx="529.2" cy="601.0" r="4" fill="#6fb1e0" fill-opacity="0.9"><title>lumex C++17: 0.67 ns, 1.01x</title></circle>
<circle cx="529.1" cy="601.0" r="4" fill="#7b4fb0" fill-opacity="0.9"><title>lumex inlined C++17: 0.67 ns, 1.01x</title></circle>
<circle cx="527.9" cy="601.0" r="4" fill="#3c9d4a" fill-opacity="0.9"><title>boost C++11: 0.66 ns, 1.00x</title></circle>
<circle cx="527.7" cy="601.0" r="4" fill="#8fd19a" fill-opacity="0.9"><title>boost C++17: 0.66 ns, 0.99x</title></circle>
<rect x="0" y="610.0" width="1000" height="18" fill="#f6f8fa"/>
<text x="182" y="623.0" text-anchor="end">return_value</text>
<circle cx="528.3" cy="619.0" r="4" fill="#d9822b" fill-opacity="0.9"><title>std C++17: 0.78 ns, 1.00x</title></circle>
<circle cx="529.2" cy="619.0" r="4" fill="#b0601a" fill-opacity="0.9"><title>std C++20: 0.79 ns, 1.01x</title></circle>
<circle cx="528.6" cy="619.0" r="4" fill="#1b6ca8" fill-opacity="0.9"><title>lumex C++11: 0.78 ns, 1.00x</title></circle>
<circle cx="529.1" cy="619.0" r="4" fill="#6fb1e0" fill-opacity="0.9"><title>lumex C++17: 0.79 ns, 1.01x</title></circle>
<circle cx="529.7" cy="619.0" r="4" fill="#7b4fb0" fill-opacity="0.9"><title>lumex inlined C++17: 0.79 ns, 1.01x</title></circle>
<circle cx="529.7" cy="619.0" r="4" fill="#3c9d4a" fill-opacity="0.9"><title>boost C++11: 0.79 ns, 1.01x</title></circle>
<circle cx="531.6" cy="619.0" r="4" fill="#8fd19a" fill-opacity="0.9"><title>boost C++17: 0.80 ns, 1.03x</title></circle>
<text x="182" y="641.0" text-anchor="end">sort</text>
<circle cx="528.3" cy="637.0" r="4" fill="#d9822b" fill-opacity="0.9"><title>std C++17: 29.52 ns, 1.00x</title></circle>
<circle cx="519.5" cy="637.0" r="4" fill="#b0601a" fill-opacity="0.9"><title>std C++20: 27.31 ns, 0.93x</title></circle>
<circle cx="543.4" cy="637.0" r="4" fill="#1b6ca8" fill-opacity="0.9"><title>lumex C++11: 33.77 ns, 1.14x</title></circle>
<circle cx="559.7" cy="637.0" r="4" fill="#6fb1e0" fill-opacity="0.9"><title>lumex C++17: 39.00 ns, 1.32x</title></circle>
<circle cx="526.4" cy="637.0" r="4" fill="#7b4fb0" fill-opacity="0.9"><title>lumex inlined C++17: 29.05 ns, 0.98x</title></circle>
<circle cx="532.9" cy="637.0" r="4" fill="#3c9d4a" fill-opacity="0.9"><title>boost C++11: 30.77 ns, 1.04x</title></circle>
<circle cx="527.6" cy="637.0" r="4" fill="#8fd19a" fill-opacity="0.9"><title>boost C++17: 29.36 ns, 0.99x</title></circle>
<rect x="0" y="646.0" width="1000" height="18" fill="#f6f8fa"/>
<text x="182" y="659.0" text-anchor="end">map_lookup</text>
<circle cx="528.3" cy="655.0" r="4" fill="#d9822b" fill-opacity="0.9"><title>std C++17: 31.33 ns, 1.00x</title></circle>
<circle cx="512.9" cy="655.0" r="4" fill="#b0601a" fill-opacity="0.9"><title>std C++20: 27.35 ns, 0.87x</title></circle>
<circle cx="563.3" cy="655.0" r="4" fill="#1b6ca8" fill-opacity="0.9"><title>lumex C++11: 42.71 ns, 1.36x</title></circle>
<circle cx="553.0" cy="655.0" r="4" fill="#6fb1e0" fill-opacity="0.9"><title>lumex C++17: 39.02 ns, 1.25x</title></circle>
<circle cx="509.2" cy="655.0" r="4" fill="#7b4fb0" fill-opacity="0.9"><title>lumex inlined C++17: 26.47 ns, 0.84x</title></circle>
<circle cx="518.0" cy="655.0" r="4" fill="#3c9d4a" fill-opacity="0.9"><title>boost C++11: 28.61 ns, 0.91x</title></circle>
<circle cx="524.0" cy="655.0" r="4" fill="#8fd19a" fill-opacity="0.9"><title>boost C++17: 30.15 ns, 0.96x</title></circle>
<text x="182" y="677.0" text-anchor="end">split</text>
<circle cx="528.3" cy="673.0" r="4" fill="#d9822b" fill-opacity="0.9"><title>std C++17: 2179 ns, 1.00x</title></circle>
<circle cx="527.8" cy="673.0" r="4" fill="#b0601a" fill-opacity="0.9"><title>std C++20: 2170 ns, 1.00x</title></circle>
<circle cx="557.2" cy="673.0" r="4" fill="#1b6ca8" fill-opacity="0.9"><title>lumex C++11: 2816 ns, 1.29x</title></circle>
<circle cx="556.2" cy="673.0" r="4" fill="#6fb1e0" fill-opacity="0.9"><title>lumex C++17: 2790 ns, 1.28x</title></circle>
<circle cx="528.0" cy="673.0" r="4" fill="#7b4fb0" fill-opacity="0.9"><title>lumex inlined C++17: 2173 ns, 1.00x</title></circle>
<circle cx="527.4" cy="673.0" r="4" fill="#3c9d4a" fill-opacity="0.9"><title>boost C++11: 2163 ns, 0.99x</title></circle>
<circle cx="527.5" cy="673.0" r="4" fill="#8fd19a" fill-opacity="0.9"><title>boost C++17: 2165 ns, 0.99x</title></circle>
<rect x="0" y="682.0" width="1000" height="18" fill="#f6f8fa"/>
<text x="182" y="695.0" text-anchor="end">starts_with</text>
<circle cx="528.3" cy="691.0" r="4" fill="#b0601a" fill-opacity="0.9"><title>std C++20: 2.29 ns, 1.00x</title></circle>
<circle cx="516.5" cy="691.0" r="4" fill="#1b6ca8" fill-opacity="0.9"><title>lumex C++11: 2.06 ns, 0.90x</title></circle>
<circle cx="517.3" cy="691.0" r="4" fill="#6fb1e0" fill-opacity="0.9"><title>lumex C++17: 2.08 ns, 0.91x</title></circle>
<circle cx="507.8" cy="691.0" r="4" fill="#7b4fb0" fill-opacity="0.9"><title>lumex inlined C++17: 1.91 ns, 0.83x</title></circle>
<circle cx="514.0" cy="691.0" r="4" fill="#3c9d4a" fill-opacity="0.9"><title>boost C++11: 2.02 ns, 0.88x</title></circle>
<circle cx="514.7" cy="691.0" r="4" fill="#8fd19a" fill-opacity="0.9"><title>boost C++17: 2.03 ns, 0.89x</title></circle>
<text x="182" y="713.0" text-anchor="end">ends_with</text>
<circle cx="528.3" cy="709.0" r="4" fill="#b0601a" fill-opacity="0.9"><title>std C++20: 1.79 ns, 1.00x</title></circle>
<circle cx="543.3" cy="709.0" r="4" fill="#1b6ca8" fill-opacity="0.9"><title>lumex C++11: 2.05 ns, 1.14x</title></circle>
<circle cx="543.7" cy="709.0" r="4" fill="#6fb1e0" fill-opacity="0.9"><title>lumex C++17: 2.05 ns, 1.15x</title></circle>
<circle cx="519.3" cy="709.0" r="4" fill="#7b4fb0" fill-opacity="0.9"><title>lumex inlined C++17: 1.65 ns, 0.92x</title></circle>
<circle cx="529.0" cy="709.0" r="4" fill="#3c9d4a" fill-opacity="0.9"><title>boost C++11: 1.80 ns, 1.01x</title></circle>
<circle cx="528.0" cy="709.0" r="4" fill="#8fd19a" fill-opacity="0.9"><title>boost C++17: 1.79 ns, 1.00x</title></circle>
<rect x="0" y="718.0" width="1000" height="18" fill="#f6f8fa"/>
<text x="182" y="731.0" text-anchor="end">starts_with_lit</text>
<circle cx="528.3" cy="727.0" r="4" fill="#b0601a" fill-opacity="0.9"><title>std C++20: 0.46 ns, 1.00x</title></circle>
<circle cx="754.0" cy="727.0" r="4" fill="#1b6ca8" fill-opacity="0.9"><title>lumex C++11: 3.39 ns, 7.38x</title></circle>
<circle cx="753.4" cy="727.0" r="4" fill="#6fb1e0" fill-opacity="0.9"><title>lumex C++17: 3.37 ns, 7.34x</title></circle>
<circle cx="528.4" cy="727.0" r="4" fill="#7b4fb0" fill-opacity="0.9"><title>lumex inlined C++17: 0.46 ns, 1.00x</title></circle>
<circle cx="528.2" cy="727.0" r="4" fill="#3c9d4a" fill-opacity="0.9"><title>boost C++11: 0.46 ns, 1.00x</title></circle>
<circle cx="531.3" cy="727.0" r="4" fill="#8fd19a" fill-opacity="0.9"><title>boost C++17: 0.47 ns, 1.03x</title></circle>
<text x="182" y="749.0" text-anchor="end">ends_with_lit</text>
<circle cx="528.3" cy="745.0" r="4" fill="#b0601a" fill-opacity="0.9"><title>std C++20: 0.58 ns, 1.00x</title></circle>
<circle cx="744.2" cy="745.0" r="4" fill="#1b6ca8" fill-opacity="0.9"><title>lumex C++11: 3.90 ns, 6.77x</title></circle>
<circle cx="742.9" cy="745.0" r="4" fill="#6fb1e0" fill-opacity="0.9"><title>lumex C++17: 3.85 ns, 6.69x</title></circle>
<circle cx="524.5" cy="745.0" r="4" fill="#7b4fb0" fill-opacity="0.9"><title>lumex inlined C++17: 0.56 ns, 0.97x</title></circle>
<circle cx="527.3" cy="745.0" r="4" fill="#3c9d4a" fill-opacity="0.9"><title>boost C++11: 0.57 ns, 0.99x</title></circle>
<circle cx="527.4" cy="745.0" r="4" fill="#8fd19a" fill-opacity="0.9"><title>boost C++17: 0.57 ns, 0.99x</title></circle>
<rect x="0" y="754.0" width="1000" height="18" fill="#f6f8fa"/>
<text x="182" y="767.0" text-anchor="end">starts_with_chr</text>
<circle cx="528.3" cy="763.0" r="4" fill="#b0601a" fill-opacity="0.9"><title>std C++20: 0.45 ns, 1.00x</title></circle>
<circle cx="577.7" cy="763.0" r="4" fill="#1b6ca8" fill-opacity="0.9"><title>lumex C++11: 0.70 ns, 1.55x</title></circle>
<circle cx="575.7" cy="763.0" r="4" fill="#6fb1e0" fill-opacity="0.9"><title>lumex C++17: 0.69 ns, 1.52x</title></circle>
<circle cx="529.5" cy="763.0" r="4" fill="#7b4fb0" fill-opacity="0.9"><title>lumex inlined C++17: 0.46 ns, 1.01x</title></circle>
<circle cx="532.0" cy="763.0" r="4" fill="#3c9d4a" fill-opacity="0.9"><title>boost C++11: 0.47 ns, 1.03x</title></circle>
<circle cx="527.5" cy="763.0" r="4" fill="#8fd19a" fill-opacity="0.9"><title>boost C++17: 0.45 ns, 0.99x</title></circle>
<text x="182" y="785.0" text-anchor="end">hash</text>
<circle cx="528.3" cy="781.0" r="4" fill="#d9822b" fill-opacity="0.9"><title>std C++17: 5.02 ns, 1.00x</title></circle>
<circle cx="528.2" cy="781.0" r="4" fill="#b0601a" fill-opacity="0.9"><title>std C++20: 5.02 ns, 1.00x</title></circle>
<circle cx="528.4" cy="781.0" r="4" fill="#6fb1e0" fill-opacity="0.9"><title>lumex C++17: 5.03 ns, 1.00x</title></circle>
<circle cx="527.7" cy="781.0" r="4" fill="#7b4fb0" fill-opacity="0.9"><title>lumex inlined C++17: 5.00 ns, 0.99x</title></circle>
<circle cx="544.5" cy="781.0" r="4" fill="#3c9d4a" fill-opacity="0.9"><title>boost C++11: 5.80 ns, 1.15x</title></circle>
<circle cx="544.1" cy="781.0" r="4" fill="#8fd19a" fill-opacity="0.9"><title>boost C++17: 5.78 ns, 1.15x</title></circle>
<rect x="0" y="790.0" width="1000" height="18" fill="#f6f8fa"/>
<text x="182" y="803.0" text-anchor="end">to_std</text>
<circle cx="528.3" cy="799.0" r="4" fill="#d9822b" fill-opacity="0.9"><title>std C++17: 0.65 ns, 1.00x</title></circle>
<circle cx="529.2" cy="799.0" r="4" fill="#b0601a" fill-opacity="0.9"><title>std C++20: 0.66 ns, 1.01x</title></circle>
<circle cx="534.7" cy="799.0" r="4" fill="#6fb1e0" fill-opacity="0.9"><title>lumex C++17: 0.69 ns, 1.06x</title></circle>
<circle cx="546.0" cy="799.0" r="4" fill="#7b4fb0" fill-opacity="0.9"><title>lumex inlined C++17: 0.77 ns, 1.17x</title></circle>
<text x="182" y="821.0" text-anchor="end">from_std</text>
<circle cx="528.3" cy="817.0" r="4" fill="#d9822b" fill-opacity="0.9"><title>std C++17: 0.74 ns, 1.00x</title></circle>
<circle cx="524.4" cy="817.0" r="4" fill="#b0601a" fill-opacity="0.9"><title>std C++20: 0.71 ns, 0.97x</title></circle>
<circle cx="550.7" cy="817.0" r="4" fill="#6fb1e0" fill-opacity="0.9"><title>lumex C++17: 0.90 ns, 1.22x</title></circle>
<circle cx="544.6" cy="817.0" r="4" fill="#7b4fb0" fill-opacity="0.9"><title>lumex inlined C++17: 0.85 ns, 1.16x</title></circle>
<rect x="0" y="826.0" width="1000" height="18" fill="#f6f8fa"/>
<text x="182" y="839.0" text-anchor="end">eq_std</text>
<circle cx="528.3" cy="835.0" r="4" fill="#d9822b" fill-opacity="0.9"><title>std C++17: 1.80 ns, 1.00x</title></circle>
<circle cx="528.5" cy="835.0" r="4" fill="#b0601a" fill-opacity="0.9"><title>std C++20: 1.81 ns, 1.00x</title></circle>
<circle cx="577.3" cy="835.0" r="4" fill="#6fb1e0" fill-opacity="0.9"><title>lumex C++17: 2.78 ns, 1.54x</title></circle>
<circle cx="520.9" cy="835.0" r="4" fill="#7b4fb0" fill-opacity="0.9"><title>lumex inlined C++17: 1.69 ns, 0.94x</title></circle>
<text x="182" y="857.0" text-anchor="end">less_std</text>
<circle cx="528.3" cy="853.0" r="4" fill="#d9822b" fill-opacity="0.9"><title>std C++17: 2.26 ns, 1.00x</title></circle>
<circle cx="521.9" cy="853.0" r="4" fill="#b0601a" fill-opacity="0.9"><title>std C++20: 2.14 ns, 0.95x</title></circle>
<circle cx="550.6" cy="853.0" r="4" fill="#6fb1e0" fill-opacity="0.9"><title>lumex C++17: 2.76 ns, 1.22x</title></circle>
<circle cx="519.1" cy="853.0" r="4" fill="#7b4fb0" fill-opacity="0.9"><title>lumex inlined C++17: 2.09 ns, 0.92x</title></circle>
</svg>
