<?xml version="1.0" encoding="UTF-8"?>
<svg xmlns="http://www.w3.org/2000/svg" viewBox="0 0 900 535" width="900" height="535" font-family="system-ui, -apple-system, &#x27;Segoe UI&#x27;, Roboto, &#x27;Helvetica Neue&#x27;, Arial, sans-serif" text-rendering="geometricPrecision" shape-rendering="geometricPrecision">
<title>read of a read-mostly pointer, under contention, relative to the baseline</title>
<rect width="100%" height="100%" fill="#ffffff"/>
<text x="20.0" y="30.0" font-size="18" text-anchor="start" font-weight="600" fill="#1a202c">read of a read-mostly pointer, under contention, relative to the baseline</text>
<text x="20.0" y="52.0" font-size="12" text-anchor="start" font-weight="normal" fill="#4a5568">12th Gen Intel(R) Core(TM) i7-12700K, 20 logical CPUs, governor powersave; 13.2.0, LumexLib hazard_pointer; median of 5 runs</text>
<text x="20.0" y="69.0" font-size="12" text-anchor="start" font-weight="normal" fill="#4a5568">Each point: time per operation / uint64 CAS time of the same block; whiskers: 25th-75th percentile</text>
<line x1="20.0" y1="91.0" x2="44.0" y2="91.0" stroke="#0072B2" stroke-width="2.5"/>
<circle cx="32.0" cy="91.0" r="3.5" fill="#0072B2"/>
<text x="50.0" y="95.0" font-size="12" text-anchor="start" font-weight="normal" fill="#1a202c">LumexLib hazard_pointer</text>
<line x1="223.8" y1="91.0" x2="247.8" y2="91.0" stroke="#999999" stroke-width="2.5" stroke-dasharray="7 4"/>
<circle cx="235.8" cy="91.0" r="3.5" fill="#999999"/>
<text x="253.8" y="95.0" font-size="12" text-anchor="start" font-weight="normal" fill="#1a202c">plain acquire load (unsafe)</text>
<line x1="454.0" y1="91.0" x2="478.0" y2="91.0" stroke="#D55E00" stroke-width="2.5" stroke-dasharray="2 4"/>
<circle cx="466.0" cy="91.0" r="3.5" fill="#D55E00"/>
<text x="484.0" y="95.0" font-size="12" text-anchor="start" font-weight="normal" fill="#1a202c">std::shared_mutex read lock</text>
<line x1="20.0" y1="113.0" x2="44.0" y2="113.0" stroke="#E69F00" stroke-width="2.5"/>
<circle cx="32.0" cy="113.0" r="3.5" fill="#E69F00"/>
<text x="50.0" y="117.0" font-size="12" text-anchor="start" font-weight="normal" fill="#1a202c">std::atomic_load (shared_ptr)</text>
<line x1="80" y1="475.0" x2="870" y2="475.0" stroke="#e2e8f0" stroke-width="1"/>
<text x="72.0" y="479.0" font-size="11" text-anchor="end" font-weight="normal" fill="#4a5568">0</text>
<line x1="80" y1="420.0" x2="870" y2="420.0" stroke="#e2e8f0" stroke-width="1"/>
<text x="72.0" y="424.0" font-size="11" text-anchor="end" font-weight="normal" fill="#4a5568">1</text>
<line x1="80" y1="365.0" x2="870" y2="365.0" stroke="#e2e8f0" stroke-width="1"/>
<text x="72.0" y="369.0" font-size="11" text-anchor="end" font-weight="normal" fill="#4a5568">2</text>
<line x1="80" y1="310.0" x2="870" y2="310.0" stroke="#e2e8f0" stroke-width="1"/>
<text x="72.0" y="314.0" font-size="11" text-anchor="end" font-weight="normal" fill="#4a5568">3</text>
<line x1="80" y1="255.0" x2="870" y2="255.0" stroke="#e2e8f0" stroke-width="1"/>
<text x="72.0" y="259.0" font-size="11" text-anchor="end" font-weight="normal" fill="#4a5568">4</text>
<line x1="80" y1="200.0" x2="870" y2="200.0" stroke="#e2e8f0" stroke-width="1"/>
<text x="72.0" y="204.0" font-size="11" text-anchor="end" font-weight="normal" fill="#4a5568">5</text>
<line x1="80" y1="145.0" x2="870" y2="145.0" stroke="#e2e8f0" stroke-width="1"/>
<text x="72.0" y="149.0" font-size="11" text-anchor="end" font-weight="normal" fill="#4a5568">6</text>
<line x1="100.0" y1="145" x2="100.0" y2="475" stroke="#f0f3f7" stroke-width="1"/>
<text x="100.0" y="493.0" font-size="11" text-anchor="middle" font-weight="normal" fill="#4a5568">2</text>
<line x1="207.1" y1="145" x2="207.1" y2="475" stroke="#f0f3f7" stroke-width="1"/>
<text x="207.1" y="493.0" font-size="11" text-anchor="middle" font-weight="normal" fill="#4a5568">4</text>
<line x1="421.4" y1="145" x2="421.4" y2="475" stroke="#f0f3f7" stroke-width="1"/>
<text x="421.4" y="493.0" font-size="11" text-anchor="middle" font-weight="normal" fill="#4a5568">8</text>
<line x1="850.0" y1="145" x2="850.0" y2="475" stroke="#f0f3f7" stroke-width="1"/>
<text x="850.0" y="493.0" font-size="11" text-anchor="middle" font-weight="normal" fill="#4a5568">16</text>
<line x1="80" y1="475" x2="870" y2="475" stroke="#a0aec0" stroke-width="1"/>
<text x="475.0" y="515.0" font-size="12" text-anchor="middle" font-weight="normal" fill="#2d3748">threads</text>
<text x="24" y="310.0" font-size="12" text-anchor="middle" fill="#2d3748" transform="rotate(-90 24 310.0)">time / uint64 CAS time (lower is better)</text>
<line x1="80" y1="420.0" x2="870" y2="420.0" stroke="#C53030" stroke-width="1.2" stroke-dasharray="6 4"/>
<text x="866.0" y="414.0" font-size="11" text-anchor="end" font-weight="normal" fill="#C53030">uint64 CAS = 1</text>
<path d="M95.5 464.3 L202.6 470.2 L416.9 472.8 L845.5 473.4" fill="none" stroke="#0072B2" stroke-width="2.2"/>
<path d="M95.5 464.3V463.6M92.5 464.3H98.5M92.5 463.6H98.5" stroke="#0072B2" stroke-width="1.1" fill="none"/>
<circle cx="95.5" cy="464.3" r="3.6" fill="#0072B2" stroke="#ffffff" stroke-width="1"><title>LumexLib hazard_pointer, 2 threads: 0.20 (0.20..0.21)</title></circle>
<path d="M202.6 470.4V469.9M199.6 470.4H205.6M199.6 469.9H205.6" stroke="#0072B2" stroke-width="1.1" fill="none"/>
<circle cx="202.6" cy="470.2" r="3.6" fill="#0072B2" stroke="#ffffff" stroke-width="1"><title>LumexLib hazard_pointer, 4 threads: 0.09 (0.08..0.09)</title></circle>
<path d="M416.9 472.8V472.7M413.9 472.8H419.9M413.9 472.7H419.9" stroke="#0072B2" stroke-width="1.1" fill="none"/>
<circle cx="416.9" cy="472.8" r="3.6" fill="#0072B2" stroke="#ffffff" stroke-width="1"><title>LumexLib hazard_pointer, 8 threads: 0.04 (0.04..0.04)</title></circle>
<path d="M845.5 473.5V473.3M842.5 473.5H848.5M842.5 473.3H848.5" stroke="#0072B2" stroke-width="1.1" fill="none"/>
<circle cx="845.5" cy="473.4" r="3.6" fill="#0072B2" stroke="#ffffff" stroke-width="1"><title>LumexLib hazard_pointer, 16 threads: 0.03 (0.03..0.03)</title></circle>
<path d="M98.5 472.2 L205.6 473.8 L419.9 474.5 L848.5 474.8" fill="none" stroke="#999999" stroke-width="2.2" stroke-dasharray="7 4"/>
<path d="M98.5 472.4V472.1M95.5 472.4H101.5M95.5 472.1H101.5" stroke="#999999" stroke-width="1.1" fill="none"/>
<circle cx="98.5" cy="472.2" r="3.6" fill="#999999" stroke="#ffffff" stroke-width="1"><title>plain acquire load (unsafe), 2 threads: 0.05 (0.05..0.05)</title></circle>
<path d="M205.6 473.8V473.7M202.6 473.8H208.6M202.6 473.7H208.6" stroke="#999999" stroke-width="1.1" fill="none"/>
<circle cx="205.6" cy="473.8" r="3.6" fill="#999999" stroke="#ffffff" stroke-width="1"><title>plain acquire load (unsafe), 4 threads: 0.02 (0.02..0.02)</title></circle>
<path d="M419.9 474.5V474.5M416.9 474.5H422.9M416.9 474.5H422.9" stroke="#999999" stroke-width="1.1" fill="none"/>
<circle cx="419.9" cy="474.5" r="3.6" fill="#999999" stroke="#ffffff" stroke-width="1"><title>plain acquire load (unsafe), 8 threads: 0.01 (0.01..0.01)</title></circle>
<path d="M848.5 474.8V474.7M845.5 474.8H851.5M845.5 474.7H851.5" stroke="#999999" stroke-width="1.1" fill="none"/>
<circle cx="848.5" cy="474.8" r="3.6" fill="#999999" stroke="#ffffff" stroke-width="1"><title>plain acquire load (unsafe), 16 threads: 0.00 (0.00..0.00)</title></circle>
<path d="M101.5 285.8 L208.6 299.8 L422.9 285.3 L851.5 248.7" fill="none" stroke="#D55E00" stroke-width="2.2" stroke-dasharray="2 4"/>
<path d="M101.5 316.4V284.6M98.5 316.4H104.5M98.5 284.6H104.5" stroke="#D55E00" stroke-width="1.1" fill="none"/>
<circle cx="101.5" cy="285.8" r="3.6" fill="#D55E00" stroke="#ffffff" stroke-width="1"><title>std::shared_mutex read lock, 2 threads: 3.44 (2.88..3.46)</title></circle>
<path d="M208.6 312.4V294.0M205.6 312.4H211.6M205.6 294.0H211.6" stroke="#D55E00" stroke-width="1.1" fill="none"/>
<circle cx="208.6" cy="299.8" r="3.6" fill="#D55E00" stroke="#ffffff" stroke-width="1"><title>std::shared_mutex read lock, 4 threads: 3.19 (2.96..3.29)</title></circle>
<path d="M422.9 293.6V279.7M419.9 293.6H425.9M419.9 279.7H425.9" stroke="#D55E00" stroke-width="1.1" fill="none"/>
<circle cx="422.9" cy="285.3" r="3.6" fill="#D55E00" stroke="#ffffff" stroke-width="1"><title>std::shared_mutex read lock, 8 threads: 3.45 (3.30..3.55)</title></circle>
<path d="M851.5 295.1V235.2M848.5 295.1H854.5M848.5 235.2H854.5" stroke="#D55E00" stroke-width="1.1" fill="none"/>
<circle cx="851.5" cy="248.7" r="3.6" fill="#D55E00" stroke="#ffffff" stroke-width="1"><title>std::shared_mutex read lock, 16 threads: 4.12 (3.27..4.36)</title></circle>
<path d="M104.5 179.0 L211.6 265.7 L425.9 257.7 L854.5 187.8" fill="none" stroke="#E69F00" stroke-width="2.2"/>
<path d="M104.5 224.9V165.7M101.5 224.9H107.5M101.5 165.7H107.5" stroke="#E69F00" stroke-width="1.1" fill="none"/>
<circle cx="104.5" cy="179.0" r="3.6" fill="#E69F00" stroke="#ffffff" stroke-width="1"><title>std::atomic_load (shared_ptr), 2 threads: 5.38 (4.55..5.62)</title></circle>
<path d="M211.6 277.1V265.3M208.6 277.1H214.6M208.6 265.3H214.6" stroke="#E69F00" stroke-width="1.1" fill="none"/>
<circle cx="211.6" cy="265.7" r="3.6" fill="#E69F00" stroke="#ffffff" stroke-width="1"><title>std::atomic_load (shared_ptr), 4 threads: 3.81 (3.60..3.81)</title></circle>
<path d="M425.9 258.5V243.8M422.9 258.5H428.9M422.9 243.8H428.9" stroke="#E69F00" stroke-width="1.1" fill="none"/>
<circle cx="425.9" cy="257.7" r="3.6" fill="#E69F00" stroke="#ffffff" stroke-width="1"><title>std::atomic_load (shared_ptr), 8 threads: 3.95 (3.94..4.20)</title></circle>
<path d="M854.5 209.3V182.7M851.5 209.3H857.5M851.5 182.7H857.5" stroke="#E69F00" stroke-width="1.1" fill="none"/>
<circle cx="854.5" cy="187.8" r="3.6" fill="#E69F00" stroke="#ffffff" stroke-width="1"><title>std::atomic_load (shared_ptr), 16 threads: 5.22 (4.83..5.31)</title></circle>
</svg>
